<?xml version="1.0"?>
<!--Icons from directory ""-->
<svg xmlns="http://www.w3.org/2000/svg" width="14" height="26" viewBox="0 0 14 26"><svg xmlns:xlink="http://www.w3.org/1999/xlink" height="14" width="14" version="1.1" viewBox="0 0 14 14" id="comment" y="0"><title>42EEDB01-1E62-4748-8C6F-A5502ADA6545</title><desc>Created with sketchtool.</desc><g id="comment-Page-1" fill-rule="evenodd" fill="none"><g id="comment-Desktop" fill="#C8C9CB" transform="translate(-384 -889)"><g id="comment-Card-Copy-2" transform="translate(360 652)"><g id="comment-Comment-CTAs" transform="translate(24 232)"><g id="comment-Write-comment-CTA"><path id="comment-Page-1" d="m1.3333 5.6667c-0.73663 0-1.3333 0.5966-1.3333 1.3333v12l2.6667-2.667h9.3333c0.737 0 1.333-0.596 1.333-1.333v-8c0-0.7367-0.596-1.3333-1.333-1.3333h-10.667z"/></g></g></g></g></g></svg><svg xmlns:xlink="http://www.w3.org/1999/xlink" height="12" width="12" version="1.1" viewBox="0 0 12 12" id="refresh" y="14"><title>1585D63B-E80D-4F8D-9F63-DDCC8FBA7B73</title><desc>Created with sketchtool.</desc><g id="refresh-Page-1" fill-rule="evenodd" fill="none"><g id="refresh-Desktop" fill="#C8C9CB" transform="translate(-593 -937)"><g id="refresh-Card-Copy-2" transform="translate(360 652)"><g id="refresh-Commentsss" transform="translate(0 264)"><g id="refresh-View-earlier-comments" transform="translate(233 16)"><path id="refresh-Page-1" d="m11.647 5.7059l-1.235 1.2353c-1.0944-1.2-2.6826-1.9412-4.412-1.9412-3.3176 0-6 2.6824-6 6 0 3.318 2.6824 6 6 6 1.6941 0 3.2118-0.706 4.306-1.835l-0.9884-1.024c-0.8117 0.883-2.0117 1.447-3.3176 1.447-2.5412 0-4.5882-2.047-4.5882-4.588 0-2.5412 2.047-4.5882 4.5882-4.5882 1.3412 0 2.5765 0.6 3.4235 1.5176l-1.3059 1.3059h3.5294v-3.5294z"/></g></g></g></g></g></svg></svg>
