<?xml version="1.0" encoding="UTF-8" standalone="no"?>
<svg width="145px" height="162px" viewBox="0 0 145 162" version="1.1" xmlns="http://www.w3.org/2000/svg" xmlns:xlink="http://www.w3.org/1999/xlink">
    <!-- Generator: sketchtool 3.8.2 (29753) - http://www.bohemiancoding.com/sketch -->
    <title>C9C790FA-6974-464C-B842-742A753CF4FE</title>
    <desc>Created with sketchtool.</desc>
    <defs></defs>
    <g id="Page-1" stroke="none" stroke-width="1" fill="none" fill-rule="evenodd">
        <g id="Desktop" transform="translate(-149.000000, -194.000000)">
            <g id="davi" transform="translate(149.000000, 194.000000)">
                <path d="M73.0817634,18.1493793 C111.382731,18.1493793 142.478645,49.721399 142.478645,88.6087882 C142.478645,127.496177 111.382731,159.068197 73.0817634,159.068197 C34.7807957,159.068197 3.68488172,127.496177 3.68488172,88.6087882 C3.68488172,49.721399 34.7807957,18.1493793 73.0817634,18.1493793" id="Fill-1" fill="#00D4B0"></path>
                <path d="M73.310129,16.9375567 C74.5943871,16.9440197 75.8786452,16.9811823 77.1613118,17.0555074 C79.6128602,17.1976946 82.0572473,17.4691429 84.4809462,17.8690443 C90.4916559,18.861931 96.3702796,20.6530049 101.926645,23.1840985 C109.238323,26.515803 115.97471,31.1231527 121.775355,36.737931 C127.617376,42.3931034 132.499785,49.0613596 136.13772,56.3775369 C139.100108,62.3348571 141.231785,68.711468 142.449204,75.2690443 C143.876688,82.9544236 144.05572,90.8797438 142.987097,98.6249064 C142.489785,102.228867 141.720344,105.794857 140.686731,109.279251 C139.630043,112.84201 138.297247,116.319133 136.705849,119.671034 C134.855849,123.567448 132.655742,127.292591 130.144516,130.787488 C127.688194,134.204828 124.935075,137.402424 121.928129,140.330995 C118.714301,143.460729 115.210043,146.283468 111.475828,148.747507 C107.892796,151.112177 104.098108,153.145616 100.152237,154.812276 C95.7361075,156.677675 91.1329892,158.081773 86.4367742,158.996296 C82.0381505,159.853458 77.559957,160.28002 73.0817634,160.28002 C68.6035699,160.28002 64.1253763,159.853458 59.7267527,158.996296 C55.0305376,158.081773 50.4274194,156.677675 46.0112903,154.812276 C42.0654194,153.145616 38.2707312,151.111369 34.6876989,148.747507 C30.9534839,146.283468 27.4492258,143.460729 24.2353978,140.330995 C21.2284516,137.402424 18.4753333,134.204828 16.0190108,130.787488 C13.5077849,127.292591 11.3076774,123.567448 9.45767742,119.671034 C7.86627957,116.319133 6.53348387,112.84201 5.4767957,109.279251 C4.4431828,105.794857 3.67374194,102.229675 3.17643011,98.6249064 C2.10780645,90.8797438 2.28683871,82.9544236 3.71432258,75.2690443 C4.94526882,68.6403744 7.11036559,62.1967094 10.122086,56.1844532 C13.7496774,48.9434089 18.597871,42.3438227 24.388172,36.737931 C30.1888172,31.1231527 36.9252043,26.515803 44.2368817,23.1840985 C49.7932473,20.6530049 55.671871,18.861931 61.6825806,17.8690443 C64.1062796,17.4691429 66.5506667,17.1976946 69.0022151,17.0555074 C70.2848817,16.9811823 71.5691398,16.9440197 72.8533978,16.9375567 L73.310129,16.9375567 L73.310129,16.9375567 Z M72.8613548,19.361202 C71.6192688,19.367665 70.3779785,19.4032118 69.1382796,19.4751133 C66.7694839,19.6124532 64.4078495,19.8742069 62.0661075,20.2611823 C56.2598925,21.2201379 50.5809892,22.9498128 45.2147957,25.3952709 C38.3359785,28.5290443 31.983914,32.8318227 26.4816559,38.063665 C20.8401505,43.4288079 16.1009677,49.7609852 12.5330538,56.7241182 C9.54202151,62.5626798 7.38090323,68.834266 6.1404086,75.2940887 C4.70178495,82.7823448 4.49172043,90.5145813 5.51101075,98.0731232 C5.97172043,101.487232 6.68387097,104.865793 7.64268817,108.171645 C8.64288172,111.6213 9.91043011,114.990975 11.4294194,118.239468 C13.1361935,121.891094 15.1604516,125.389222 17.4679785,128.682956 C19.882129,132.127764 22.6050108,135.348788 25.5936559,138.293517 C28.7303011,141.384473 32.158172,144.171665 35.816,146.600966 C39.2128387,148.857379 42.8078065,150.805182 46.5452043,152.411251 C50.861871,154.266148 55.367914,155.663783 59.9678495,156.575074 C64.1404946,157.402345 68.3895269,157.827291 72.6409462,157.854759 C76.9027097,157.882227 81.1660645,157.510601 85.3593978,156.735842 C89.9768387,155.881911 94.505957,154.539212 98.8504731,152.735212 C102.737462,151.121872 106.475656,149.140946 110.002989,146.828788 C113.561355,144.495626 116.905677,141.827192 119.979462,138.868729 C123.001527,135.961163 125.761806,132.774069 128.215742,129.359153 C130.560667,126.09531 132.625505,122.623842 134.375247,118.995645 C135.992108,115.642128 137.340817,112.15531 138.401484,108.580433 C139.35871,105.352946 140.080409,102.054365 140.561806,98.7194286 C141.64157,91.240867 141.515054,83.5797241 140.181462,76.1431724 C139.018151,69.6599212 136.931828,63.3527882 134.006839,57.4697931 C130.522473,50.4614187 125.855699,44.0694581 120.275462,38.6356453 C114.787527,33.2915074 108.424323,28.8820887 101.515269,25.6562167 C96.2405806,23.1937931 90.6563656,21.4253399 84.9392688,20.4057931 C82.5370538,19.9776158 80.1109677,19.6811232 77.6769247,19.5163153 C76.4404086,19.4322956 75.2023011,19.3846305 73.9626022,19.3668571 C73.5957849,19.3628177 73.228172,19.361202 72.8613548,19.361202 L72.8613548,19.361202 Z" id="Fill-2" fill="#3F6873"></path>
                <path d="M73.0817634,18.1493793 C111.382731,18.1493793 142.478645,49.721399 142.478645,88.6087882 C142.478645,127.496177 111.382731,159.068197 73.0817634,159.068197 C34.7807957,159.068197 3.68488172,127.496177 3.68488172,88.6087882 C3.68488172,49.721399 34.7807957,18.1493793 73.0817634,18.1493793" id="Fill-3" fill="#00D4B0"></path>
                <path d="M73.310129,16.9375567 C74.5943871,16.9440197 75.8786452,16.9811823 77.1613118,17.0555074 C79.6128602,17.1976946 82.0572473,17.4691429 84.4809462,17.8690443 C90.4916559,18.861931 96.3702796,20.6530049 101.926645,23.1840985 C109.238323,26.515803 115.97471,31.1231527 121.775355,36.737931 C127.617376,42.3931034 132.499785,49.0613596 136.13772,56.3775369 C139.100108,62.3348571 141.231785,68.711468 142.449204,75.2690443 C143.876688,82.9544236 144.05572,90.8797438 142.987097,98.6249064 C142.489785,102.228867 141.720344,105.794857 140.686731,109.279251 C139.630043,112.84201 138.297247,116.319133 136.705849,119.671034 C134.855849,123.567448 132.655742,127.292591 130.144516,130.787488 C127.688194,134.204828 124.935075,137.402424 121.928129,140.330995 C118.714301,143.460729 115.210043,146.283468 111.475828,148.747507 C107.892796,151.112177 104.098108,153.145616 100.152237,154.812276 C95.7361075,156.677675 91.1329892,158.081773 86.4367742,158.996296 C82.0381505,159.853458 77.559957,160.28002 73.0817634,160.28002 C68.6035699,160.28002 64.1253763,159.853458 59.7267527,158.996296 C55.0305376,158.081773 50.4274194,156.677675 46.0112903,154.812276 C42.0654194,153.145616 38.2707312,151.111369 34.6876989,148.747507 C30.9534839,146.283468 27.4492258,143.460729 24.2353978,140.330995 C21.2284516,137.402424 18.4753333,134.204828 16.0190108,130.787488 C13.5077849,127.292591 11.3076774,123.567448 9.45767742,119.671034 C7.86627957,116.319133 6.53348387,112.84201 5.4767957,109.279251 C4.4431828,105.794857 3.67374194,102.229675 3.17643011,98.6249064 C2.10780645,90.8797438 2.28683871,82.9544236 3.71432258,75.2690443 C4.94526882,68.6403744 7.11036559,62.1967094 10.122086,56.1844532 C13.7496774,48.9434089 18.597871,42.3438227 24.388172,36.737931 C30.1888172,31.1231527 36.9252043,26.515803 44.2368817,23.1840985 C49.7932473,20.6530049 55.671871,18.861931 61.6825806,17.8690443 C64.1062796,17.4691429 66.5506667,17.1976946 69.0022151,17.0555074 C70.2848817,16.9811823 71.5691398,16.9440197 72.8533978,16.9375567 L73.310129,16.9375567 L73.310129,16.9375567 Z M72.8613548,19.361202 C71.6192688,19.367665 70.3779785,19.4032118 69.1382796,19.4751133 C66.7694839,19.6124532 64.4078495,19.8742069 62.0661075,20.2611823 C56.2598925,21.2201379 50.5809892,22.9498128 45.2147957,25.3952709 C38.3359785,28.5290443 31.983914,32.8318227 26.4816559,38.063665 C20.8401505,43.4288079 16.1009677,49.7609852 12.5330538,56.7241182 C9.54202151,62.5626798 7.38090323,68.834266 6.1404086,75.2940887 C4.70178495,82.7823448 4.49172043,90.5145813 5.51101075,98.0731232 C5.97172043,101.487232 6.68387097,104.865793 7.64268817,108.171645 C8.64288172,111.6213 9.91043011,114.990975 11.4294194,118.239468 C13.1361935,121.891094 15.1604516,125.389222 17.4679785,128.682956 C19.882129,132.127764 22.6050108,135.348788 25.5936559,138.293517 C28.7303011,141.384473 32.158172,144.171665 35.816,146.600966 C39.2128387,148.857379 42.8078065,150.805182 46.5452043,152.411251 C50.861871,154.266148 55.367914,155.663783 59.9678495,156.575074 C64.1404946,157.402345 68.3895269,157.827291 72.6409462,157.854759 C76.9027097,157.882227 81.1660645,157.510601 85.3593978,156.735842 C89.9768387,155.881911 94.505957,154.539212 98.8504731,152.735212 C102.737462,151.121872 106.475656,149.140946 110.002989,146.828788 C113.561355,144.495626 116.905677,141.827192 119.979462,138.868729 C123.001527,135.961163 125.761806,132.774069 128.215742,129.359153 C130.560667,126.09531 132.625505,122.623842 134.375247,118.995645 C135.992108,115.642128 137.340817,112.15531 138.401484,108.580433 C139.35871,105.352946 140.080409,102.054365 140.561806,98.7194286 C141.64157,91.240867 141.515054,83.5797241 140.181462,76.1431724 C139.018151,69.6599212 136.931828,63.3527882 134.006839,57.4697931 C130.522473,50.4614187 125.855699,44.0694581 120.275462,38.6356453 C114.787527,33.2915074 108.424323,28.8820887 101.515269,25.6562167 C96.2405806,23.1937931 90.6563656,21.4253399 84.9392688,20.4057931 C82.5370538,19.9776158 80.1109677,19.6811232 77.6769247,19.5163153 C76.4404086,19.4322956 75.2023011,19.3846305 73.9626022,19.3668571 C73.5957849,19.3628177 73.228172,19.361202 72.8613548,19.361202 L72.8613548,19.361202 Z" id="Fill-4" fill="#3F6873"></path>
                <path d="M81.9275484,120.537892 C97.4190108,120.5387 110.79471,129.809143 116.960581,143.179586 C104.999634,153.109261 89.719828,159.068197 73.080172,159.068197 C56.536,159.068197 41.3357634,153.177123 29.4058495,143.350049 C35.5367097,129.888315 48.9593548,120.5387 64.5168602,120.537892 L81.9275484,120.537892" id="Fill-5" fill="#FFFFFF"></path>
                <path d="M82.1185161,118.518995 C83.3765161,118.527882 84.6337204,118.588473 85.8861505,118.712079 C88.332129,118.952828 90.7566237,119.418975 93.1198495,120.105675 C96.8039355,121.176118 100.333656,122.782995 103.575333,124.859251 C107.173484,127.16333 110.410387,130.041813 113.138043,133.35736 C115.07557,135.712335 116.754495,138.286246 118.131849,141.017695 C118.294968,141.340847 118.454108,141.666424 118.608473,141.994424 C118.693613,142.174581 118.787505,142.355547 118.84957,142.545399 C118.874237,142.622148 118.894925,142.70132 118.910839,142.7813 C119.006323,143.261182 118.92357,143.76934 118.680882,144.193478 C118.600516,144.334049 118.503441,144.464118 118.392839,144.581261 C118.33714,144.640236 118.275075,144.691133 118.215398,144.746069 C118.02443,144.904414 117.832667,145.061951 117.640903,145.21868 C116.960581,145.768847 116.273097,146.310128 115.575269,146.836059 C114.17643,147.890345 112.739398,148.892926 111.268946,149.841379 C106.927613,152.639882 102.287892,154.960926 97.4548172,156.745537 C93.1254194,158.344335 88.6416559,159.512532 84.0894624,160.229123 C77.3403441,161.292296 70.4392473,161.369044 63.6686452,160.461793 C57.9897419,159.701576 52.4055269,158.240926 47.0727527,156.119429 C41.8585376,154.044788 36.8893978,151.340808 32.2966237,148.08666 C31.1818495,147.29736 30.0893548,146.474936 29.0207312,145.622621 C28.8257849,145.4667 28.6340215,145.312394 28.4406667,145.154857 C28.3117634,145.049025 28.104086,144.887448 27.9791613,144.757379 C27.8677634,144.641044 27.7706882,144.510975 27.6895269,144.370404 C27.4452473,143.947882 27.3609032,143.44134 27.454,142.96065 C27.4691183,142.88067 27.4898065,142.802305 27.5144731,142.724749 C27.5757419,142.534089 27.668043,142.352315 27.7531828,142.17135 C27.9322151,141.786798 28.1176129,141.40467 28.3085806,141.025773 C29.6103441,138.442975 31.1818495,136.001557 32.9864946,133.751606 C35.683914,130.389202 38.9017204,127.460631 42.4887312,125.105655 C45.8203226,122.919527 49.4662151,121.231862 53.2792043,120.118601 C55.6511828,119.426246 58.0852258,118.956059 60.5415484,118.713695 C61.7995484,118.589281 63.0615269,118.527882 64.3250968,118.518995 C70.2562366,118.504453 76.1873763,118.504453 82.1185161,118.518995 L82.1185161,118.518995 Z M64.5192473,122.557596 C63.2628387,122.560828 62.0080215,122.621419 60.7579785,122.751488 C58.4369247,122.991429 56.1389462,123.457576 53.9054194,124.14266 C50.7926452,125.098384 47.8095699,126.479054 45.0564516,128.234581 C42.1983011,130.056355 39.5907957,132.279645 37.3262366,134.818818 C35.8876129,136.432966 34.5874409,138.173143 33.4464086,140.015921 C32.9021505,140.895704 32.396086,141.798108 31.9242366,142.719901 L31.8955914,142.775645 C35.0879355,145.28331 38.5014839,147.500138 42.0837204,149.388966 C45.5481935,151.215586 49.1702151,152.735212 52.8948817,153.92199 C56.3450323,155.021517 59.8827097,155.835862 63.4625591,156.356138 C69.361871,157.2133 75.374172,157.275507 81.2893978,156.545182 C85.8630753,155.980473 90.3786667,154.93669 94.7414839,153.432414 C99.4575914,151.806148 103.99228,149.643448 108.237333,147.000867 C109.640946,146.126739 111.012731,145.200906 112.349505,144.225793 C113.017097,143.73864 113.674344,143.238562 114.325226,142.728788 L114.467656,142.616493 C111.944495,137.694877 108.321677,133.36867 103.958065,130.03131 C100.822215,127.633517 97.3092043,125.750345 93.5869247,124.48197 C91.2348387,123.680552 88.8023871,123.125537 86.3396989,122.825005 C84.9893978,122.660197 83.6319355,122.575369 82.272086,122.559212 C76.3544731,122.517202 70.4368602,122.557596 64.5192473,122.557596 L64.5192473,122.557596 Z" id="Fill-6" fill="#3F6873"></path>
                <path d="M72.5168172,15.5237635 C73.8265376,15.5302266 75.1362581,15.568197 76.4435914,15.6441379 C78.9436774,15.7887488 81.4358065,16.0658522 83.9072473,16.4738325 C90.0373118,17.4861084 96.0329032,19.3127291 101.699075,21.8939113 C109.15557,25.2910542 116.024043,29.9896946 121.938473,35.7143448 C127.895871,41.4818128 132.873763,48.2801379 136.583312,55.7409261 C139.604581,61.8153892 141.77843,68.3196453 143.020516,75.0072906 C144.475849,82.8437438 144.65886,90.9241773 143.568753,98.8212217 C143.061097,102.497084 142.277333,106.13336 141.223032,109.687232 C140.14486,113.320276 138.785806,116.866877 137.163376,120.285025 C135.275978,124.258187 133.032903,128.056847 130.472344,131.620414 C127.96828,135.105616 125.161054,138.365419 122.09443,141.35135 C118.817742,144.542483 115.245054,147.420158 111.437634,149.93267 C107.783785,152.344197 103.913505,154.41803 99.8896559,156.117813 C95.386,158.019567 90.6913763,159.451941 85.9012688,160.385044 C81.4167097,161.258365 76.8509892,161.693813 72.2844731,161.693813 C67.717957,161.693813 63.1522366,161.258365 58.6676774,160.385044 C53.8775699,159.451941 49.1829462,158.019567 44.6792903,156.117813 C40.6554409,154.41803 36.7851613,152.344197 33.1313118,149.93267 C29.3238925,147.420158 25.7512043,144.542483 22.4745161,141.35135 C19.356172,138.314522 16.5059785,134.994936 13.9692903,131.44268 C11.462043,127.930818 9.26113978,124.192749 7.40556989,120.285025 C5.78313978,116.866877 4.42408602,113.320276 3.34591398,109.687232 C2.2916129,106.13336 1.50784946,102.497084 1.00019355,98.8212217 C-0.0891182796,90.9241773 0.0930967742,82.8437438 1.54843011,75.0072906 C2.80404301,68.246936 5.01210753,61.6748177 8.08350538,55.5429951 C11.7827097,48.1597635 16.7255914,41.4301084 22.6304731,35.7143448 C28.5449032,29.9896946 35.4133763,25.2910542 42.869871,21.8939113 C48.536043,19.3127291 54.5316344,17.4861084 60.6616989,16.4738325 C63.1331398,16.0658522 65.6252688,15.7887488 68.1253548,15.6441379 C69.4326882,15.568197 70.7424086,15.5302266 72.052129,15.5237635 L72.5168172,15.5237635 L72.5168172,15.5237635 Z M72.068043,20.7749951 C70.8514194,20.7814581 69.6347957,20.816197 68.4197634,20.8864828 C66.0995054,21.021399 63.7864086,21.2774975 61.4924086,21.6563941 C55.8055484,22.5959606 50.2436129,24.2900887 44.9872258,26.6854581 C38.2492473,29.7554089 32.0268817,33.9701281 26.6368172,39.0961379 C21.1098925,44.3514089 16.4661935,50.555133 12.9714839,57.3760788 C10.0417204,63.0950739 7.92516129,69.237399 6.70933333,75.5647291 C5.30015054,82.9011034 5.09486022,90.4766108 6.09346237,97.8816552 C7.01488172,104.717143 8.97548387,111.399941 11.890129,117.632749 C13.5618925,121.210049 15.5447742,124.637084 17.8053548,127.863764 C20.170172,131.238286 22.8381505,134.393872 25.7655269,137.278818 C28.7430323,140.213044 31.9870968,142.866128 35.4452043,145.193635 C38.8706882,147.498522 42.5062366,149.48268 46.2913763,151.109754 C50.5189247,152.92668 54.931871,154.295232 59.4371183,155.187941 C63.5254194,155.997438 67.6877204,156.414305 71.8524086,156.440966 C76.0274409,156.467626 80.2048602,156.104079 84.3122581,155.34467 C88.8350108,154.508512 93.2710323,153.193281 97.5264301,151.427251 C101.333849,149.846227 104.99486,147.905695 108.450581,145.640394 C111.936538,143.355704 115.21243,140.740591 118.224151,137.842719 C124.015247,132.269951 128.818086,125.650167 132.327118,118.374384 C133.820645,115.276966 135.080237,112.06402 136.089978,108.771094 C137.117226,105.42 137.885871,101.98731 138.387161,98.5150345 C139.454194,91.118069 139.318129,83.53933 137.976581,76.1884138 C136.830774,69.9111724 134.800151,63.8060099 131.966667,58.1072118 C128.552323,51.2418325 123.981032,44.9799409 118.514581,39.656 C113.138043,34.4201182 106.904538,30.1003744 100.136323,26.9407488 C94.9706452,24.5292217 89.5010108,22.7963153 83.9008817,21.7985813 C81.5472043,21.3784828 79.172043,21.0884532 76.7873333,20.9268768 C75.5754839,20.8444729 74.362043,20.7984236 73.1478065,20.7806502 C72.7881505,20.7766108 72.4284946,20.7749951 72.068043,20.7749951 L72.068043,20.7749951 Z" id="Fill-7" fill="#3F6873"></path>
                <path d="M129.944366,82.3719606 C132.232796,82.3719606 134.089957,84.2575567 134.089957,86.5810246 C134.089957,88.9036847 132.232796,90.7892808 129.944366,90.7892808 C127.656731,90.7892808 125.79957,88.9036847 125.79957,86.5810246 C125.79957,84.2575567 127.656731,82.3719606 129.944366,82.3719606" id="Fill-8" fill="#FFFFFF"></path>
                <path d="M37.7002151,108.704039 C39.2398925,108.704039 40.4907312,109.97403 40.4907312,111.538897 C40.4907312,113.10134 39.2398925,114.37133 37.7002151,114.37133 C36.1597419,114.37133 34.9089032,113.10134 34.9089032,111.538897 C34.9089032,109.97403 36.1597419,108.704039 37.7002151,108.704039" id="Fill-9" fill="#FFFFFF"></path>
                <path d="M115.700172,107.703567 C117.286,107.703567 118.573441,109.010719 118.573441,110.620828 C118.573441,112.230936 117.286,113.538897 115.700172,113.538897 C114.114344,113.538897 112.826903,112.230936 112.826903,110.620828 C112.826903,109.010719 114.114344,107.703567 115.700172,107.703567" id="Fill-10" fill="#30A677"></path>
                <path d="M20.0285376,93.5740296 C21.6135699,93.5740296 22.9010108,94.8811823 22.9010108,96.4904828 C22.9010108,98.1005911 21.6135699,99.4077438 20.0285376,99.4077438 C18.4427097,99.4077438 17.1552688,98.1005911 17.1552688,96.4904828 C17.1552688,94.8811823 18.4427097,93.5740296 20.0285376,93.5740296" id="Fill-11" fill="#30A677"></path>
                <path d="M83.2468172,103.515015 C83.2468172,98.0044532 78.8402366,93.5304039 73.4119785,93.5304039 C67.9845161,93.5304039 63.5779355,98.0044532 63.5779355,103.515015 L63.5779355,122.25464 C63.5779355,127.76601 67.9845161,132.240059 73.4119785,132.240059 C78.8402366,132.240059 83.2468172,127.76601 83.2468172,122.25464 L83.2468172,103.515015" id="Fill-12" fill="#ECECEC"></path>
                <path d="M73.5591828,91.9154483 C73.9474839,91.9227192 74.3349892,91.9453399 74.7216989,91.9905813 C75.5683226,92.088335 76.4038065,92.2838424 77.2082581,92.5714483 C78.728043,93.1151527 80.1276774,93.9900887 81.294172,95.1195074 C82.5593333,96.3442562 83.5428172,97.8606502 84.1435699,99.5273103 C84.4363871,100.338424 84.6392903,101.183468 84.7467097,102.039823 C84.8016129,102.480118 84.8286667,102.92203 84.8374194,103.365557 C84.8772043,109.711468 84.8772043,116.058187 84.8374194,122.404099 C84.8286667,122.847626 84.8016129,123.289537 84.7467097,123.729833 C84.6273548,124.680709 84.3910323,125.616236 84.0449032,126.50733 C83.6223871,127.594739 83.035957,128.615094 82.3142581,129.525576 C81.5686882,130.465143 80.6783011,131.286759 79.6860645,131.95003 C78.7176989,132.597143 77.6530538,133.093182 76.5382796,133.415527 C75.3813333,133.749182 74.1734624,133.893793 72.971957,133.847744 C71.6892903,133.797655 70.4169677,133.528631 69.2234194,133.050365 C67.8969892,132.518778 66.6732043,131.732709 65.630043,130.746286 C64.5558495,129.730778 63.6766022,128.506837 63.0551613,127.156867 C62.5976344,126.162365 62.2817419,125.103232 62.117828,124.019054 C62.0374624,123.483429 61.9976774,122.945379 61.9873333,122.404099 C61.9475484,116.058187 61.9475484,109.711468 61.9873333,103.365557 C61.996086,102.92203 62.0231398,102.480118 62.078043,102.039823 C62.1854624,101.183468 62.3883656,100.338424 62.6811828,99.5273103 C63.2819355,97.8614581 64.2654194,96.3442562 65.5305806,95.1195074 C66.6962796,93.9900887 68.0967097,93.1151527 69.6164946,92.5714483 C70.4201505,92.2838424 71.2556344,92.088335 72.1022581,91.9905813 C72.4889677,91.9453399 72.8764731,91.9227192 73.2647742,91.9154483 C73.4119785,91.9146404 73.4119785,91.9146404 73.5591828,91.9154483 L73.5591828,91.9154483 Z M73.3053548,95.1469754 C72.9894624,95.1526305 72.6743656,95.1728276 72.3608602,95.2132217 C71.7537419,95.2923941 71.1545806,95.4402365 70.580086,95.6535172 C69.4883871,96.0598818 68.4866022,96.7037635 67.6550968,97.527803 C66.7766452,98.3995074 66.0923441,99.468335 65.6690323,100.639764 C65.4589677,101.223054 65.3133548,101.831389 65.2353763,102.447803 C65.1955914,102.766108 65.1756989,103.08603 65.170129,103.406759 C65.1303441,109.725202 65.1303441,116.044453 65.170129,122.362897 C65.1772903,122.753911 65.2059355,123.14331 65.2648172,123.530286 C65.3817849,124.3107 65.6101505,125.07334 65.9387742,125.789123 C66.3875484,126.764236 67.0233118,127.648059 67.7991183,128.380808 C68.5518495,129.092552 69.4350753,129.660493 70.3915054,130.044236 C71.2516559,130.388394 72.1683011,130.582286 73.0929032,130.617833 C74.0278495,130.654187 74.9683656,130.530581 75.8619355,130.247823 C76.7849462,129.956177 77.6538495,129.4973 78.4209032,128.900276 C79.6049032,127.978483 80.535871,126.731921 81.0841075,125.32136 C81.3331613,124.679901 81.5034409,124.006128 81.5893763,123.321852 C81.6291613,123.003547 81.6490538,122.683626 81.6546237,122.362897 C81.6944086,116.044453 81.6944086,109.725202 81.6546237,103.406759 C81.6490538,103.08603 81.6291613,102.766108 81.5893763,102.447803 C81.5113978,101.831389 81.3657849,101.223054 81.1557204,100.639764 C80.7212688,99.4368276 80.0107097,98.3421478 79.098043,97.4583251 C78.2561935,96.6439803 77.2464516,96.0114089 76.1499785,95.6195862 C75.5707097,95.4119606 74.9691613,95.2713892 74.3596559,95.2011034 C74.0803656,95.1687882 73.8002796,95.1526305 73.5186022,95.1469754 C73.4119785,95.1461675 73.4127742,95.1461675 73.3053548,95.1469754 L73.3053548,95.1469754 Z" id="Fill-13" fill="#3F6873"></path>
                <path d="M105.024301,55.0970443 C105.024301,37.1976158 90.7112688,22.6654384 73.0817634,22.6654384 C55.4522581,22.6654384 41.1392258,37.1976158 41.1392258,55.0970443 L41.1392258,83.3018128 C41.1392258,101.200433 55.4522581,115.732611 73.0817634,115.732611 C90.7112688,115.732611 105.024301,101.200433 105.024301,83.3018128 L105.024301,55.0970443" id="Fill-14" fill="#E6E6E6"></path>
                <path d="M73.2878495,22.6662463 L73.4939355,22.6678621 L73.7000215,22.6710936 L73.9053118,22.6759409 L74.1106022,22.6815961 L74.3158925,22.688867 L74.5203871,22.6977537 L74.724086,22.7074483 L74.9285806,22.7187586 L75.1314839,22.7316847 L75.3351828,22.7454187 L75.538086,22.7599606 L75.7401935,22.7761182 L75.9423011,22.7938916 L76.1444086,22.8124729 L76.3457204,22.83267 L76.5470323,22.8544828 L76.7475484,22.8771034 L76.9480645,22.9013399 L77.1477849,22.9263842 L77.3475054,22.9522365 L77.5464301,22.9805123 L77.7453548,23.0095961 L77.9434839,23.0394877 L78.1416129,23.0709951 L78.3389462,23.1033103 L78.5362796,23.1372414 L78.7328172,23.1719803 L78.9293548,23.208335 L79.1250968,23.2463054 L79.3208387,23.2850837 L79.5157849,23.32467 L79.7107312,23.3658719 L79.9048817,23.4078818 L80.0982366,23.4515074 L80.2915914,23.4967488 L80.4849462,23.542798 L80.6775054,23.5896552 L80.8692688,23.6381281 L81.0610323,23.6874089 L81.252,23.7374975 L81.442172,23.789202 L81.6323441,23.8425222 L81.8225161,23.8966502 L82.0110968,23.9515862 L82.1996774,24.0081379 L82.3882581,24.0654975 L82.576043,24.1244729 L82.7630323,24.1842562 L82.9500215,24.2456552 L83.1362151,24.3070542 L83.5070108,24.4346995 L83.6916129,24.5001379 L83.8762151,24.5671921 L84.0600215,24.6350542 L84.2430323,24.7037241 L84.4252473,24.773202 L84.6074624,24.8442956 L84.7888817,24.916197 L84.9703011,24.9897143 L85.1509247,25.0640394 L85.3307527,25.1391724 L85.5097849,25.2159212 L85.6888172,25.2934778 L85.8670538,25.3718424 L86.0452903,25.4518227 L86.2219355,25.531803 L86.3985806,25.6142069 L86.5744301,25.6966108 L86.7502796,25.7806305 L86.9245376,25.8654581 L87.2730538,26.0383448 L87.4457204,26.1264039 L87.6183871,26.2152709 L87.7902581,26.3057537 L87.9613333,26.3970443 L88.1324086,26.4891429 L88.3018925,26.5820493 L88.4713763,26.6765714 L88.6400645,26.7710936 L88.8087527,26.8672315 L89.1429462,27.0627389 L89.3092473,27.1621084 L89.4747527,27.2622857 L89.6394624,27.3632709 L89.804172,27.4658719 L89.9672903,27.5684729 L90.1304086,27.6726897 L90.2927312,27.7777143 L90.4550538,27.8835468 L90.6157849,27.9909951 L90.7757204,28.0984433 L90.9356559,28.2075074 L91.0947957,28.3173793 L91.2531398,28.4280591 L91.4106882,28.5395468 L91.5674409,28.6518424 L91.7233978,28.7657537 L91.8793548,28.8804729 L92.0337204,28.9951921 L92.188086,29.1115271 L92.3416559,29.2294778 L92.4944301,29.3474286 L92.6464086,29.4661872 L92.7975914,29.5865616 L92.9479785,29.706936 L93.0975699,29.8289261 L93.2463656,29.9517241 L93.3951613,30.07533 L93.5423656,30.1997438 L93.6895699,30.3249655 L93.8351828,30.4509951 L93.9807957,30.5778325 L94.1256129,30.7054778 L94.4120645,30.964 L94.5544946,31.0948768 L94.6953333,31.2257537 L94.836172,31.3582463 L94.9762151,31.4915468 L95.1154624,31.6248473 L95.253914,31.7597635 L95.3915699,31.8954877 L95.6636989,32.1685517 L95.7989677,32.3066995 L95.9334409,32.4456552 L96.0671183,32.5854187 L96.3312903,32.8665616 L96.4625806,33.0087488 L96.5922796,33.1517438 L96.7219785,33.2955468 L96.9781935,33.5847685 L97.1047097,33.7309951 L97.3561505,34.025064 L97.4802796,34.1737143 L97.6036129,34.3223645 L97.7261505,34.4726305 L97.8478925,34.6228966 L97.9688387,34.7739704 L98.2075484,35.0793498 L98.3253118,35.2328473 L98.4430753,35.3871527 L98.5592473,35.542266 L98.6746237,35.6973793 L98.7892043,35.8541084 L98.9029892,36.0116453 L99.0159785,36.1691823 L99.1273763,36.3275271 L99.3485806,36.6474483 L99.4575914,36.8082167 L99.5658065,36.9689852 L99.6724301,37.1313695 L99.7790538,37.2945616 L99.884086,37.4577537 L99.9891183,37.6217537 L100.092559,37.7865616 L100.194409,37.9521773 L100.296258,38.118601 L100.39572,38.2850246 L100.496774,38.453064 L100.594645,38.6211034 L100.692516,38.7899507 L100.789591,38.958798 L100.88428,39.1292611 L100.979763,39.2997241 L101.07286,39.4709951 L101.165957,39.6430739 L101.258258,39.8159606 L101.348968,39.9888473 L101.527204,40.3378522 L101.614731,40.5123547 L101.700667,40.6884729 L101.787398,40.8645911 L101.871742,41.0415172 L101.956086,41.2192512 L102.038043,41.3969852 L102.12,41.5755271 L102.19957,41.7548768 L102.279935,41.9350345 L102.35871,42.1151921 L102.435892,42.2961576 L102.511484,42.477931 L102.587075,42.6605123 L102.661871,42.8430936 L102.735075,43.0264828 L102.806688,43.2098719 L102.877505,43.394069 L102.947527,43.5790739 L103.016753,43.7648867 L103.084387,43.9506995 L103.151226,44.1373202 L103.216473,44.3239409 L103.280925,44.5113695 L103.344581,44.6996059 L103.406645,44.8886502 L103.467914,45.0776946 L103.527591,45.2667389 L103.586473,45.457399 L103.644559,45.6480591 L103.701054,45.8387192 L103.756753,46.0301872 L103.811656,46.2224631 L103.864968,46.4147389 L103.916688,46.6078227 L103.967613,46.8017143 L104.017742,46.9956059 L104.06628,47.1903054 L104.114022,47.3850049 L104.160172,47.5805123 L104.205527,47.7760197 L104.24929,47.972335 L104.292258,48.1694581 L104.333634,48.3665813 L104.374215,48.5637044 L104.414,48.7624433 L104.452194,48.9603744 L104.488796,49.1599212 L104.524602,49.3586601 L104.558817,49.5590148 L104.592237,49.7585616 L104.62486,49.9597241 L104.655892,50.1608867 L104.685333,50.3620493 L104.713978,50.5640197 L104.741032,50.7659901 L104.76729,50.9687685 L104.791957,51.1715468 L104.815828,51.375133 L104.838108,51.5787192 L104.858796,51.7831133 L104.878688,51.9875074 L104.896989,52.1919015 L104.914495,52.3971034 L104.930409,52.6031133 L104.945527,52.8091232 L104.959054,53.015133 L104.970989,53.2219507 L104.982129,53.4287685 L104.991677,53.6363941 L105.00043,53.8440197 L105.007591,54.0516453 L105.013161,54.2600788 L105.017935,54.4685123 L105.021118,54.6777537 L105.023505,54.8869951 L105.024301,55.0970443 L105.024301,83.3018128 L105.023505,83.5110542 L105.021118,83.7202956 L105.017935,83.9295369 L105.013161,84.1379704 L105.007591,84.3464039 L105.00043,84.5540296 L104.991677,84.7616552 L104.982129,84.9692808 L104.970989,85.1760985 L104.959054,85.3829163 L104.945527,85.5889261 L104.930409,85.794936 L104.914495,86.0009458 L104.896989,86.2061478 L104.878688,86.4113498 L104.858796,86.6157438 L104.838108,86.81933 L104.815828,87.0237241 L104.791957,87.2265025 L104.76729,87.4300887 L104.741032,87.6320591 L104.713978,87.8348374 L104.685333,88.036 L104.655892,88.2379704 L104.62486,88.439133 L104.592237,88.6394877 L104.558817,88.8398424 L104.524602,89.0393892 L104.488796,89.238936 L104.452194,89.4376749 L104.414,89.6364138 L104.374215,89.8343448 L104.333634,90.031468 L104.292258,90.2285911 L104.24929,90.4257143 L104.205527,90.6220296 L104.160172,90.8175369 L104.114022,91.0130443 L104.06628,91.2077438 L104.017742,91.4024433 L103.967613,91.596335 L103.916688,91.7902266 L103.864968,91.9833103 L103.811656,92.1755862 L103.756753,92.3678621 L103.701054,92.55933 L103.644559,92.750798 L103.586473,92.9414581 L103.527591,93.1313103 L103.467914,93.3211626 L103.406645,93.5102069 L103.344581,93.6984433 L103.280925,93.8866798 L103.216473,94.0741084 L103.151226,94.2615369 L103.084387,94.4473498 L103.016753,94.6339704 L102.947527,94.8189754 L102.877505,95.0039803 L102.806688,95.1881773 L102.735075,95.3723744 L102.661871,95.5549557 L102.587075,95.7383448 L102.435892,96.1018916 L102.35871,96.2828571 L102.279935,96.4630148 L102.19957,96.6431724 L102.12,96.8225222 L102.038043,97.001064 L101.956086,97.178798 L101.871742,97.356532 L101.787398,97.5334581 L101.700667,97.7095764 L101.614731,97.8856946 L101.527204,98.0610049 L101.438086,98.2355074 L101.348968,98.409202 L101.258258,98.5820887 L101.165957,98.7549754 L101.07286,98.9270542 L100.979763,99.0983251 L100.88428,99.2687882 L100.789591,99.4392512 L100.692516,99.6089064 L100.594645,99.7769458 L100.496774,99.9457931 L100.39572,100.113025 L100.296258,100.279448 L100.194409,100.445872 L100.092559,100.611488 L99.9891183,100.776296 L99.7790538,101.104296 L99.5658065,101.429064 L99.4575914,101.59064 L99.3485806,101.751409 L99.2379785,101.911369 L99.1273763,102.070522 L99.0159785,102.228867 L98.9029892,102.387212 L98.7892043,102.543941 L98.6746237,102.70067 L98.5592473,102.856591 L98.4430753,103.010897 L98.3253118,103.165202 L98.2075484,103.3187 L98.0881935,103.472197 L97.9688387,103.624079 L97.8478925,103.775153 L97.7261505,103.926227 L97.6036129,104.075685 L97.4802796,104.224335 L97.3561505,104.372985 L97.2304301,104.520828 L97.1047097,104.667054 L96.9781935,104.813281 L96.850086,104.9587 L96.7219785,105.102502 L96.5922796,105.246305 L96.4625806,105.3893 L96.3312903,105.531488 L96.1992043,105.672867 L96.0671183,105.812631 L95.9334409,105.952394 L95.7989677,106.09135 L95.6636989,106.229498 L95.5276344,106.366837 L95.3915699,106.502562 L95.253914,106.638286 L95.1154624,106.773202 L94.9762151,106.90731 L94.836172,107.039803 L94.6953333,107.172296 L94.5544946,107.303172 L94.4120645,107.434049 L94.1256129,107.692571 L93.9807957,107.820217 L93.6895699,108.073892 L93.5423656,108.199113 L93.3951613,108.323527 L93.0975699,108.569123 L92.9479785,108.691113 L92.7975914,108.812296 L92.6464086,108.931862 L92.4944301,109.050621 L92.3416559,109.169379 L92.188086,109.286522 L92.0337204,109.402857 L91.8793548,109.518384 L91.5674409,109.746207 L91.4106882,109.858502 L91.2531398,109.96999 L91.0947957,110.081478 L90.9356559,110.190542 L90.7757204,110.299606 L90.6157849,110.407862 L90.4550538,110.514502 L90.2927312,110.620335 L90.1304086,110.72536 L89.9672903,110.830384 L89.804172,110.932985 L89.6394624,111.034778 L89.4747527,111.135764 L89.3092473,111.235941 L89.1429462,111.336118 L88.9758495,111.433064 L88.8087527,111.530818 L88.6400645,111.627764 L88.4713763,111.722286 L88.3018925,111.816808 L88.1324086,111.908906 L87.9613333,112.001005 L87.7902581,112.092296 L87.6183871,112.182778 L87.4457204,112.271645 L87.2730538,112.359704 L87.0987957,112.446956 L86.9245376,112.532591 L86.7502796,112.617419 L86.5744301,112.701438 L86.3985806,112.78465 L86.2219355,112.866246 L86.0452903,112.947034 L85.6888172,113.105379 L85.3307527,113.258877 L85.1509247,113.33401 L84.9703011,113.408335 L84.7888817,113.481852 L84.6074624,113.553754 L84.4252473,113.624847 L84.2430323,113.694325 L84.0600215,113.763803 L83.8762151,113.830857 L83.6916129,113.897911 L83.5070108,113.96335 L83.3216129,114.02798 L83.1362151,114.090995 L82.9500215,114.153202 L82.7630323,114.213793 L82.576043,114.273576 L82.3882581,114.332552 L82.1996774,114.389911 L82.0110968,114.446463 L81.8225161,114.501399 L81.6323441,114.555527 L81.442172,114.608847 L81.252,114.660552 L81.0610323,114.71064 L80.8692688,114.760729 L80.6775054,114.808394 L80.4849462,114.856059 L80.2915914,114.9013 L80.0982366,114.946542 L79.9048817,114.990167 L79.7107312,115.032177 L79.5157849,115.073379 L79.3208387,115.112966 L79.1250968,115.151744 L78.9293548,115.189714 L78.7328172,115.226069 L78.5362796,115.260808 L78.3389462,115.294739 L78.1416129,115.327054 L77.9434839,115.358562 L77.7453548,115.389261 L77.5464301,115.417537 L77.3475054,115.445813 L77.1477849,115.471665 L76.9480645,115.497517 L76.7475484,115.520946 L76.5470323,115.543567 L76.3457204,115.565379 L76.1444086,115.585576 L75.9423011,115.604158 L75.7401935,115.621931 L75.538086,115.638089 L75.3351828,115.653438 L75.1314839,115.667172 L74.9285806,115.679291 L74.724086,115.690601 L74.5203871,115.700296 L74.3158925,115.709182 L74.1106022,115.716453 L73.9053118,115.722108 L73.7000215,115.726956 L73.4939355,115.730187 L73.2878495,115.731803 L73.0817634,115.732611 L72.8756774,115.731803 L72.6687957,115.730187 L72.4635054,115.726956 L72.2582151,115.722108 L72.0529247,115.716453 L71.8476344,115.709182 L71.6431398,115.700296 L71.4386452,115.690601 L71.2349462,115.679291 L71.0312473,115.667172 L70.8283441,115.653438 L70.6254409,115.638089 L70.4233333,115.621931 L70.2212258,115.604158 L70.0191183,115.585576 L69.8178065,115.565379 L69.6164946,115.543567 L69.4159785,115.520946 L69.2154624,115.497517 L69.0157419,115.471665 L68.8160215,115.445813 L68.6170968,115.417537 L68.418172,115.389261 L68.220043,115.358562 L68.021914,115.327054 L67.8245806,115.294739 L67.6272473,115.260808 L67.4307097,115.226069 L67.234172,115.189714 L67.0384301,115.151744 L66.8426882,115.112966 L66.6477419,115.073379 L66.4527957,115.032177 L66.2586452,114.990167 L66.0652903,114.946542 L65.6785806,114.856059 L65.4860215,114.808394 L65.2942581,114.760729 L65.1024946,114.71064 L64.9115269,114.660552 L64.7213548,114.608847 L64.5311828,114.555527 L64.3410108,114.501399 L64.1524301,114.446463 L63.9630538,114.389911 L63.7752688,114.332552 L63.5874839,114.273576 L63.4004946,114.213793 L63.2135054,114.153202 L63.0273118,114.090995 L62.8411183,114.02798 L62.6565161,113.96335 L62.471914,113.897911 L62.2873118,113.830857 L62.1035054,113.763803 L61.7374839,113.624847 L61.5560645,113.553754 L61.3738495,113.481852 L61.1932258,113.408335 L61.0126022,113.33401 L60.8327742,113.258877 L60.4747097,113.105379 L60.1182366,112.947034 L59.9415914,112.866246 L59.7649462,112.78465 L59.5890968,112.701438 L59.4132473,112.617419 L59.2389892,112.532591 L59.0647312,112.446956 L58.8904731,112.359704 L58.7178065,112.271645 L58.5451398,112.182778 L58.3732688,112.092296 L58.2021935,112.001005 L58.0311183,111.908906 L57.8616344,111.816808 L57.6921505,111.722286 L57.5234624,111.627764 L57.3547742,111.530818 L57.1876774,111.433064 L57.0205806,111.336118 L56.8542796,111.235941 L56.6887742,111.135764 L56.5240645,111.034778 L56.3593548,110.932985 L56.1954409,110.830384 L55.8707957,110.620335 L55.7084731,110.514502 L55.5477419,110.407862 L55.3870108,110.299606 L55.0687312,110.081478 L54.9103871,109.96999 L54.7528387,109.858502 L54.596086,109.746207 L54.4393333,109.632296 L54.284172,109.518384 L54.1290108,109.402857 L53.9754409,109.286522 L53.821871,109.169379 L53.6690968,109.050621 L53.5171183,108.931862 L53.3659355,108.812296 L53.2155484,108.691113 L53.065957,108.569123 L52.9163656,108.446325 L52.7683656,108.323527 L52.6211613,108.199113 L52.473957,108.073892 L52.1827312,107.820217 L52.037914,107.692571 L51.7514624,107.434049 L51.6090323,107.303172 L51.4673978,107.172296 L51.1873118,106.90731 L51.0480645,106.773202 L50.9096129,106.638286 L50.771957,106.502562 L50.6358925,106.366837 L50.499828,106.229498 L50.3637634,106.09135 L50.230086,105.952394 L50.0964086,105.812631 L49.9643226,105.672867 L49.8322366,105.531488 L49.7001505,105.3893 L49.4415484,105.102502 L49.3134409,104.9587 L49.1853333,104.813281 L49.0588172,104.667054 L48.9330968,104.520828 L48.8073763,104.372985 L48.6832473,104.224335 L48.559914,104.075685 L48.4373763,103.926227 L48.3156344,103.775153 L48.1946882,103.624079 L48.0753333,103.472197 L47.9559785,103.3187 L47.8382151,103.165202 L47.7204516,103.010897 L47.6042796,102.856591 L47.4889032,102.70067 L47.3743226,102.543941 L47.2605376,102.387212 L47.1475484,102.228867 L47.0361505,102.070522 L46.9247527,101.911369 L46.8149462,101.751409 L46.7059355,101.59064 L46.5977204,101.429064 L46.4903011,101.26668 L46.3844731,101.104296 L46.1744086,100.776296 L46.0709677,100.611488 L45.9691183,100.445872 L45.8672688,100.279448 L45.7670108,100.113025 L45.6667527,99.9457931 L45.568086,99.7769458 L45.4710108,99.6089064 L45.3739355,99.4392512 L45.2784516,99.2687882 L45.1837634,99.0983251 L45.089871,98.9270542 L44.9975699,98.7549754 L44.9052688,98.5820887 L44.8145591,98.409202 L44.7246452,98.2355074 L44.6363226,98.0610049 L44.5487957,97.8856946 L44.4620645,97.7095764 L44.376129,97.5334581 L44.2917849,97.356532 L44.2074409,97.178798 L44.1254839,97.001064 L44.0435269,96.8225222 L43.9631613,96.6431724 L43.8835914,96.4630148 L43.8048172,96.2828571 L43.7276344,96.1018916 L43.6512473,95.9201182 L43.5764516,95.7383448 L43.5016559,95.5549557 L43.4284516,95.3723744 L43.3568387,95.1881773 L43.2860215,95.0039803 L43.216,94.8189754 L43.1467742,94.6339704 L43.0791398,94.4473498 L43.0123011,94.2615369 L42.9470538,94.0741084 L42.8826022,93.8866798 L42.8189462,93.6984433 L42.7568817,93.5102069 L42.6956129,93.3211626 L42.5762581,92.9414581 L42.5189677,92.750798 L42.4624731,92.55933 L42.4067742,92.3678621 L42.351871,92.1755862 L42.2985591,91.9833103 L42.2468387,91.7902266 L42.195914,91.596335 L42.1457849,91.4024433 L42.0972473,91.2077438 L42.0495054,91.0130443 L42.0033548,90.8175369 L41.958,90.6220296 L41.9142366,90.4257143 L41.8712688,90.2285911 L41.8298925,90.031468 L41.7893118,89.8343448 L41.7495269,89.6364138 L41.7113333,89.4376749 L41.6747312,89.238936 L41.6389247,89.0393892 L41.603914,88.8398424 L41.5386667,88.439133 L41.5076344,88.2379704 L41.4781935,88.036 L41.4495484,87.8348374 L41.4224946,87.6320591 L41.3962366,87.4300887 L41.3715699,87.2265025 L41.3476989,87.0237241 L41.3254194,86.81933 L41.3047312,86.6157438 L41.2848387,86.4113498 L41.2665376,86.2061478 L41.2490323,86.0009458 L41.2331183,85.794936 L41.218,85.5889261 L41.2044731,85.3829163 L41.1925376,85.1760985 L41.1813978,84.9692808 L41.1710538,84.7616552 L41.1630968,84.5540296 L41.1559355,84.3464039 L41.1503656,84.1379704 L41.1455914,83.9295369 L41.1424086,83.7202956 L41.1400215,83.5110542 L41.1392258,83.3018128 L41.1392258,55.0970443 L41.1400215,54.8869951 L41.1424086,54.6777537 L41.1455914,54.4685123 L41.1503656,54.2600788 L41.1559355,54.0516453 L41.1630968,53.8440197 L41.1710538,53.6363941 L41.1813978,53.4287685 L41.1925376,53.2219507 L41.2044731,53.015133 L41.218,52.8091232 L41.2331183,52.6031133 L41.2490323,52.3971034 L41.2665376,52.1919015 L41.2848387,51.9875074 L41.3047312,51.7831133 L41.3254194,51.5787192 L41.3476989,51.375133 L41.3715699,51.1715468 L41.3962366,50.9687685 L41.4224946,50.7659901 L41.4495484,50.5640197 L41.4781935,50.3620493 L41.5076344,50.1608867 L41.5386667,49.9597241 L41.5712903,49.7585616 L41.603914,49.5590148 L41.6389247,49.3586601 L41.6747312,49.1599212 L41.7113333,48.9603744 L41.7495269,48.7624433 L41.7893118,48.5637044 L41.8298925,48.3665813 L41.8712688,48.1694581 L41.9142366,47.972335 L41.958,47.7760197 L42.0033548,47.5805123 L42.0495054,47.3850049 L42.0972473,47.1903054 L42.1457849,46.9956059 L42.195914,46.8017143 L42.2468387,46.6078227 L42.2985591,46.4147389 L42.351871,46.2224631 L42.4067742,46.0301872 L42.4624731,45.8387192 L42.5189677,45.6480591 L42.5762581,45.457399 L42.6359355,45.2667389 L42.6956129,45.0776946 L42.7568817,44.8886502 L42.8189462,44.6996059 L42.8826022,44.5113695 L42.9470538,44.3239409 L43.0123011,44.1373202 L43.0791398,43.9506995 L43.1467742,43.7648867 L43.216,43.5790739 L43.2860215,43.394069 L43.3568387,43.2098719 L43.4284516,43.0264828 L43.5016559,42.8430936 L43.6512473,42.477931 L43.7276344,42.2961576 L43.8048172,42.1151921 L43.8835914,41.9350345 L43.9631613,41.7548768 L44.0435269,41.5755271 L44.1254839,41.3969852 L44.2074409,41.2192512 L44.2917849,41.0415172 L44.376129,40.8645911 L44.4620645,40.6884729 L44.5487957,40.5123547 L44.6363226,40.3378522 L44.7246452,40.1633498 L44.8145591,39.9888473 L44.9052688,39.8159606 L44.9975699,39.6430739 L45.089871,39.4709951 L45.1837634,39.2997241 L45.2784516,39.1292611 L45.3739355,38.958798 L45.568086,38.6211034 L45.6667527,38.453064 L45.7670108,38.2850246 L45.8672688,38.118601 L45.9691183,37.9521773 L46.0709677,37.7865616 L46.1744086,37.6217537 L46.2794409,37.4577537 L46.3844731,37.2945616 L46.4903011,37.1313695 L46.5977204,36.9689852 L46.7059355,36.8082167 L46.8149462,36.6474483 L46.9247527,36.4874877 L47.0361505,36.3275271 L47.1475484,36.1691823 L47.2605376,36.0116453 L47.3743226,35.8541084 L47.4889032,35.6973793 L47.6042796,35.542266 L47.7204516,35.3871527 L47.8382151,35.2328473 L47.9559785,35.0793498 L48.1946882,34.7739704 L48.3156344,34.6228966 L48.4373763,34.4726305 L48.559914,34.3223645 L48.6832473,34.1737143 L48.8073763,34.025064 L49.0588172,33.7309951 L49.1853333,33.5847685 L49.4415484,33.2955468 L49.7001505,33.0087488 L49.8322366,32.8665616 L50.0964086,32.5854187 L50.230086,32.4456552 L50.3637634,32.3066995 L50.499828,32.1685517 L50.771957,31.8954877 L50.9096129,31.7597635 L51.0480645,31.6248473 L51.1873118,31.4915468 L51.3273548,31.3582463 L51.4673978,31.2257537 L51.6090323,31.0948768 L51.7514624,30.964 L52.037914,30.7054778 L52.1827312,30.5778325 L52.3283441,30.4509951 L52.473957,30.3249655 L52.6211613,30.1997438 L52.7683656,30.07533 L52.9163656,29.9517241 L53.065957,29.8289261 L53.2155484,29.706936 L53.3659355,29.5865616 L53.5171183,29.4661872 L53.6690968,29.3474286 L53.821871,29.2294778 L53.9754409,29.1115271 L54.1290108,28.9951921 L54.4393333,28.7657537 L54.596086,28.6518424 L54.7528387,28.5395468 L54.9103871,28.4280591 L55.0687312,28.3173793 L55.227871,28.2075074 L55.3870108,28.0984433 L55.7084731,27.8835468 L55.8707957,27.7777143 L56.0331183,27.6726897 L56.1954409,27.5684729 L56.3593548,27.4658719 L56.5240645,27.3632709 L56.6887742,27.2622857 L56.8542796,27.1621084 L57.0205806,27.0627389 L57.3547742,26.8672315 L57.5234624,26.7710936 L57.6921505,26.6765714 L57.8616344,26.5820493 L58.0311183,26.4891429 L58.2021935,26.3970443 L58.3732688,26.3057537 L58.5451398,26.2152709 L58.7178065,26.1264039 L58.8904731,26.0383448 L59.2389892,25.8654581 L59.4132473,25.7806305 L59.5890968,25.6966108 L59.7649462,25.6142069 L59.9415914,25.531803 L60.1182366,25.4518227 L60.2964731,25.3718424 L60.4747097,25.2934778 L60.6537419,25.2159212 L60.8327742,25.1391724 L61.0126022,25.0640394 L61.1932258,24.9897143 L61.3738495,24.916197 L61.5560645,24.8442956 L61.7374839,24.773202 L61.9204946,24.7037241 L62.1035054,24.6350542 L62.2873118,24.5671921 L62.471914,24.5001379 L62.6565161,24.4346995 L62.8411183,24.3708768 L63.0273118,24.3070542 L63.2135054,24.2456552 L63.4004946,24.1842562 L63.5874839,24.1244729 L63.7752688,24.0654975 L63.9630538,24.0081379 L64.1524301,23.9515862 L64.3410108,23.8966502 L64.5311828,23.8425222 L64.7213548,23.789202 L64.9115269,23.7374975 L65.1024946,23.6874089 L65.2942581,23.6381281 L65.4860215,23.5896552 L65.6785806,23.542798 L65.8719355,23.4967488 L66.0652903,23.4515074 L66.2586452,23.4078818 L66.4527957,23.3658719 L66.6477419,23.32467 L66.8426882,23.2850837 L67.0384301,23.2463054 L67.234172,23.208335 L67.4307097,23.1719803 L67.6272473,23.1372414 L67.8245806,23.1033103 L68.021914,23.0709951 L68.220043,23.0394877 L68.418172,23.0095961 L68.6170968,22.9805123 L68.8160215,22.9522365 L69.0157419,22.9263842 L69.2154624,22.9013399 L69.4159785,22.8771034 L69.6164946,22.8544828 L69.8178065,22.83267 L70.0191183,22.8124729 L70.2212258,22.7938916 L70.4233333,22.7761182 L70.6254409,22.7599606 L70.8283441,22.7454187 L71.0312473,22.7316847 L71.2349462,22.7187586 L71.4386452,22.7074483 L71.6431398,22.6977537 L71.8476344,22.688867 L72.0529247,22.6815961 L72.2582151,22.6759409 L72.4635054,22.6710936 L72.6687957,22.6678621 L72.8756774,22.6662463 L73.0817634,22.6654384 L73.2878495,22.6662463 L73.2878495,22.6662463 Z M72.8955699,25.8977734 L72.7093763,25.8993892 L72.5239785,25.9026207 L72.3385806,25.9066601 L72.1531828,25.9123153 L71.9685806,25.9187783 L71.7847742,25.9260493 L71.600172,25.934936 L71.4163656,25.9454384 L71.2333548,25.9559409 L71.0503441,25.968867 L70.8673333,25.982601 L70.6851183,25.9971429 L70.5029032,26.0124926 L70.3214839,26.0294581 L70.1400645,26.0480394 L69.9586452,26.0674286 L69.7780215,26.0876256 L69.5973978,26.1094384 L69.4175699,26.1320591 L69.2385376,26.1554877 L69.0587097,26.180532 L68.8796774,26.2063842 L68.7014409,26.2338522 L68.5232043,26.2621281 L68.3449677,26.2912118 L68.1675269,26.3219113 L67.9908817,26.3534187 L67.8142366,26.385734 L67.6375914,26.419665 L67.4617419,26.4544039 L67.2858925,26.4907586 L67.1116344,26.5279212 L66.9365806,26.5658916 L66.7623226,26.60467 L66.5880645,26.645064 L66.4146022,26.686266 L66.2419355,26.7290837 L66.0684731,26.7719015 L65.8966022,26.816335 L65.7247312,26.8623842 L65.5536559,26.9084335 L65.3825806,26.9560985 L65.2115054,27.0045714 L65.0420215,27.0546601 L64.8717419,27.1055567 L64.7022581,27.1572611 L64.5335699,27.2097734 L64.3648817,27.2639015 L64.1969892,27.3188374 L64.0298925,27.3745813 L63.8627957,27.431133 L63.6956989,27.4893005 L63.5293978,27.5482759 L63.3638925,27.6080591 L63.1983871,27.6686502 L63.0336774,27.7308571 L62.8697634,27.7938719 L62.7058495,27.8576946 L62.5427312,27.9223251 L62.3796129,27.9885714 L62.2172903,28.0548177 L62.0549677,28.1226798 L61.8942366,28.1913498 L61.7335054,28.2616355 L61.5727742,28.3319212 L61.4128387,28.4038227 L61.2536989,28.476532 L61.0945591,28.5500493 L60.9362151,28.6243744 L60.777871,28.7003153 L60.6211183,28.7762562 L60.4643656,28.8538128 L60.3076129,28.9321773 L60.1516559,29.0113498 L59.9972903,29.09133 L59.842129,29.1721182 L59.6877634,29.2545222 L59.5341935,29.337734 L59.3814194,29.4209458 L59.2286452,29.5065813 L59.0766667,29.5922167 L58.9254839,29.6786601 L58.7743011,29.7659113 L58.6247097,29.8539704 L58.4751183,29.9436453 L58.3255269,30.0341281 L58.1767312,30.1246108 L58.0295269,30.2167094 L57.8815269,30.3096158 L57.7351183,30.40333 L57.5887097,30.4978522 L57.4430968,30.5931823 L57.2982796,30.6893202 L57.1542581,30.786266 L57.0102366,30.8848276 L56.8670108,30.9833892 L56.7237849,31.0835665 L56.5821505,31.1837438 L56.3004731,31.38733 L56.1604301,31.4907389 L56.0203871,31.5949557 L55.7434839,31.8050049 L55.605828,31.9116453 L55.4697634,32.0182857 L55.3329032,32.1265419 L55.1976344,32.2356059 L55.0623656,32.3454778 L54.9278925,32.4561576 L54.7942151,32.5676453 L54.6613333,32.679133 L54.5292473,32.7922365 L54.397957,32.9061478 L54.2666667,33.020867 L54.136172,33.1355862 L53.8783656,33.3682562 L53.7502581,33.4862069 L53.6229462,33.6041576 L53.4956344,33.7237241 L53.369914,33.8432906 L53.2441935,33.963665 L53.1200645,34.0848473 L52.9959355,34.2076453 L52.8726022,34.3304433 L52.7500645,34.4540493 L52.6283226,34.5784631 L52.5073763,34.7028768 L52.3872258,34.8289064 L52.2670753,34.9557438 L52.1485161,35.0825813 L52.0307527,35.2110345 L51.9137849,35.3394877 L51.7968172,35.4687488 L51.6814409,35.5988177 L51.5660645,35.7296946 L51.4514839,35.8613793 L51.2255054,36.1263645 L51.0027097,36.3945813 L50.8921075,36.5294975 L50.7823011,36.6652217 L50.6732903,36.8017537 L50.565871,36.9382857 L50.4584516,37.0756256 L50.351828,37.2145813 L50.246,37.3535369 L50.1417634,37.4933005 L49.9332903,37.7744433 L49.8322366,37.9158227 L49.7303871,38.0580099 L49.6293333,38.2010049 L49.4304086,38.4886108 L49.3325376,38.6332217 L49.2346667,38.7786404 L49.1383871,38.924867 L49.0429032,39.0710936 L48.8535269,39.3667783 L48.7604301,39.5146207 L48.668129,39.6640788 L48.5766237,39.8135369 L48.4867097,39.963803 L48.3967957,40.1148768 L48.3076774,40.2659507 L48.2201505,40.4178325 L48.1326237,40.5705222 L48.0466882,40.7240197 L47.9615484,40.8775172 L47.8772043,41.0318227 L47.7936559,41.186936 L47.7109032,41.3420493 L47.6289462,41.4979704 L47.5485806,41.6546995 L47.4690108,41.8114286 L47.3894409,41.9689655 L47.3114624,42.1273103 L47.2350753,42.2856552 L47.1586882,42.4448079 L47.0830968,42.6047685 L47.0083011,42.7655369 L46.9350968,42.9263054 L46.8626882,43.0870739 L46.7910753,43.2494581 L46.7210538,43.4110345 L46.6510323,43.5742266 L46.5826022,43.7374187 L46.5149677,43.9014187 L46.448129,44.0662266 L46.382086,44.2310345 L46.3176344,44.3958424 L46.2531828,44.562266 L46.1903226,44.7286897 L46.1282581,44.8951133 L46.0677849,45.0623448 L46.0073118,45.2303842 L45.9484301,45.3984236 L45.8903441,45.5672709 L45.8338495,45.7361182 L45.7773548,45.9065813 L45.7224516,46.0762365 L45.6683441,46.2466995 L45.5633118,46.5892414 L45.5123871,46.7605123 L45.4622581,46.933399 L45.4137204,47.1062857 L45.3659785,47.2791724 L45.3190323,47.452867 L45.2728817,47.6265616 L45.2283226,47.8018719 L45.1845591,47.9763744 L45.1415914,48.1516847 L45.1002151,48.327803 L45.0596344,48.5039212 L45.0198495,48.6808473 L44.9808602,48.8577734 L44.9434624,49.0346995 L44.9068602,49.2124335 L44.8718495,49.3909754 L44.8376344,49.5695172 L44.8042151,49.7480591 L44.7715914,49.9274089 L44.7405591,50.1075665 L44.6816774,50.4678818 L44.653828,50.6488473 L44.6275699,50.8306207 L44.6021075,51.0123941 L44.5774409,51.1941675 L44.5535699,51.3767488 L44.5312903,51.55933 L44.5098065,51.7427192 L44.489914,51.9261084 L44.4708172,52.1094975 L44.4533118,52.2936946 L44.4366022,52.4786995 L44.4206882,52.6628966 L44.4063656,52.8479015 L44.3928387,53.0337143 L44.3809032,53.2195271 L44.3697634,53.4061478 L44.3602151,53.5927685 L44.3514624,53.7793892 L44.3435054,53.9668177 L44.3371398,54.1542463 L44.3315699,54.3424828 L44.3275914,54.5307192 L44.3244086,54.7189557 L44.3228172,54.9071921 L44.3220215,55.1018916 L44.3220215,83.2961576 L44.3228172,83.4908571 L44.3244086,83.6790936 L44.3275914,83.8681379 L44.3315699,84.0563744 L44.3371398,84.243803 L44.3435054,84.4312315 L44.3514624,84.6186601 L44.3602151,84.8052808 L44.3697634,84.9919015 L44.3809032,85.1785222 L44.3928387,85.364335 L44.4063656,85.5501478 L44.4206882,85.7351527 L44.4366022,85.9201576 L44.4533118,86.1043547 L44.4708172,86.2885517 L44.489914,86.4719409 L44.5098065,86.6561379 L44.5312903,86.8387192 L44.5535699,87.0213005 L44.5774409,87.2038818 L44.6021075,87.3864631 L44.6275699,87.5682365 L44.653828,87.749202 L44.6816774,87.9301675 L44.7405591,88.2904828 L44.7715914,88.4706404 L44.8042151,88.6499901 L44.8376344,88.828532 L44.8718495,89.0070739 L44.9068602,89.1856158 L44.9434624,89.3633498 L44.9808602,89.5410837 L45.0198495,89.7180099 L45.0596344,89.894936 L45.1002151,90.0710542 L45.1415914,90.2463645 L45.1845591,90.4216749 L45.2283226,90.5969852 L45.2728817,90.7714877 L45.3190323,90.9451823 L45.3659785,91.1188768 L45.4137204,91.2917635 L45.4622581,91.4646502 L45.5123871,91.6375369 L45.5633118,91.8088079 L45.615828,91.9808867 L45.6683441,92.1521576 L45.7224516,92.3218128 L45.7773548,92.4922759 L45.8903441,92.8315862 L45.9484301,92.9996256 L46.0073118,93.167665 L46.0677849,93.3357044 L46.1282581,93.502936 L46.1903226,93.6701675 L46.2531828,93.8365911 L46.382086,94.1678227 L46.448129,94.3326305 L46.5149677,94.4966305 L46.5826022,94.6606305 L46.6510323,94.8238227 L46.7210538,94.9870148 L46.7910753,95.149399 L46.8626882,95.3109754 L46.9350968,95.4725517 L47.0083011,95.6333202 L47.0830968,95.7932808 L47.1586882,95.9532414 L47.2350753,96.1123941 L47.3114624,96.2707389 L47.3894409,96.4290837 L47.5485806,96.7441576 L47.6289462,96.9000788 L47.7109032,97.0568079 L47.7936559,97.2119212 L47.8772043,97.3662266 L47.9615484,97.5213399 L48.0466882,97.6740296 L48.1326237,97.8275271 L48.2201505,97.9802167 L48.3076774,98.1320985 L48.3967957,98.2839803 L48.5766237,98.5845123 L48.668129,98.7339704 L48.7604301,98.8834286 L48.8535269,99.0320788 L48.9482151,99.1799212 L49.0429032,99.3269557 L49.1383871,99.4731823 L49.2346667,99.6194089 L49.3325376,99.7648276 L49.4304086,99.9094384 L49.6293333,100.197044 L49.7303871,100.340039 L49.8322366,100.482227 L49.9332903,100.623606 L50.0375269,100.764985 L50.1417634,100.905557 L50.246,101.044512 L50.351828,101.183468 L50.4584516,101.322424 L50.565871,101.459764 L50.6732903,101.596296 L50.7823011,101.732828 L50.8921075,101.868552 L51.0027097,102.003468 L51.1141075,102.138384 L51.2255054,102.271685 L51.4514839,102.53667 L51.5660645,102.668355 L51.6814409,102.799232 L51.7968172,102.9293 L52.0307527,103.187823 L52.1485161,103.315468 L52.2670753,103.442305 L52.3872258,103.569143 L52.5073763,103.695172 L52.6283226,103.819586 L52.7500645,103.944 L52.8726022,104.067606 L52.9959355,104.191212 L53.1200645,104.313202 L53.2441935,104.434384 L53.4956344,104.675133 L53.7502581,104.91265 L53.8783656,105.029793 L54.0072688,105.146936 L54.136172,105.262463 L54.2666667,105.37799 L54.397957,105.492709 L54.5292473,105.605813 L54.6613333,105.718916 L54.7942151,105.831212 L54.9278925,105.941892 L55.0623656,106.052571 L55.1976344,106.162443 L55.3329032,106.271507 L55.4689677,106.379764 L55.605828,106.486404 L55.7434839,106.593044 L55.8819355,106.698877 L56.0203871,106.803094 L56.1604301,106.90731 L56.3004731,107.010719 L56.5821505,107.214305 L56.7237849,107.314483 L56.8670108,107.41466 L57.1534624,107.611783 L57.2982796,107.708729 L57.4430968,107.804867 L57.5887097,107.900197 L57.7351183,107.994719 L57.8815269,108.088433 L58.0295269,108.18134 L58.1767312,108.273438 L58.3255269,108.364729 L58.6247097,108.544079 L58.7743011,108.632138 L59.0766667,108.80664 L59.2286452,108.892276 L59.3814194,108.977103 L59.5341935,109.061123 L59.6877634,109.143527 L59.842129,109.225931 L59.9972903,109.306719 L60.1516559,109.3867 L60.3076129,109.465872 L60.4643656,109.544236 L60.6211183,109.621793 L60.777871,109.698542 L60.9362151,109.773675 L61.0945591,109.848 L61.2536989,109.921517 L61.4128387,109.994227 L61.5727742,110.066128 L61.7335054,110.137222 L61.8942366,110.2067 L62.0549677,110.275369 L62.2172903,110.343232 L62.3796129,110.410286 L62.5427312,110.475724 L62.7058495,110.540355 L62.8697634,110.604177 L63.0336774,110.667192 L63.1983871,110.730207 L63.3638925,110.78999 L63.5293978,110.849773 L63.6956989,110.909557 L63.8627957,110.966916 L64.0298925,111.023468 L64.1969892,111.079212 L64.3648817,111.134956 L64.5335699,111.189084 L64.7022581,111.240788 L64.8717419,111.292493 L65.0412258,111.343389 L65.2115054,111.393478 L65.3825806,111.441951 L65.5536559,111.489616 L65.7247312,111.537281 L65.8966022,111.582522 L66.0684731,111.626956 L66.2411398,111.669773 L66.4146022,111.711783 L66.5880645,111.752985 L66.7623226,111.793379 L66.9365806,111.832158 L67.1116344,111.870936 L67.2858925,111.908099 L67.4617419,111.943645 L67.6375914,111.978384 L67.8142366,112.012315 L67.9908817,112.044631 L68.1675269,112.076138 L68.3449677,112.106837 L68.5232043,112.135921 L68.7014409,112.164197 L68.8796774,112.191665 L69.0587097,112.217517 L69.2385376,112.242562 L69.4175699,112.26599 L69.5973978,112.288611 L69.7780215,112.310424 L69.9586452,112.330621 L70.1400645,112.35001 L70.3214839,112.368591 L70.5029032,112.385557 L70.6851183,112.400906 L70.8673333,112.416256 L71.2333548,112.442108 L71.4163656,112.453419 L71.600172,112.463113 L71.7847742,112.472 L71.9685806,112.480079 L72.1531828,112.486542 L72.3385806,112.491389 L72.5239785,112.496236 L72.7093763,112.49866 L72.8955699,112.500276 L73.0817634,112.501084 L73.267957,112.500276 L73.4541505,112.49866 L73.6395484,112.496236 L74.0103441,112.486542 L74.1949462,112.480079 L74.3787527,112.472 L74.5633548,112.463113 L74.7463656,112.453419 L74.930172,112.442108 L75.2961935,112.416256 L75.6606237,112.385557 L75.842043,112.368591 L76.0234624,112.35001 L76.2048817,112.330621 L76.3855054,112.310424 L76.566129,112.288611 L76.745957,112.26599 L76.9249892,112.242562 L77.1048172,112.217517 L77.2838495,112.191665 L77.462086,112.164197 L77.6403226,112.135921 L77.8177634,112.106837 L77.996,112.076138 L78.1726452,112.044631 L78.3492903,112.012315 L78.5259355,111.978384 L78.7017849,111.943645 L78.8776344,111.908099 L79.0518925,111.870936 L79.2269462,111.832158 L79.4012043,111.793379 L79.5746667,111.752985 L79.7489247,111.711783 L79.9223871,111.669773 L80.0942581,111.626956 L80.2669247,111.582522 L80.4387957,111.536473 L80.6106667,111.489616 L80.7809462,111.441951 L80.9520215,111.393478 L81.1223011,111.343389 L81.2917849,111.292493 L81.4612688,111.240788 L81.629957,111.189084 L81.7986452,111.134956 L81.9665376,111.079212 L82.1336344,111.023468 L82.3007312,110.966916 L82.467828,110.909557 L82.634129,110.849773 L82.9651398,110.730207 L83.1298495,110.667192 L83.2937634,110.604177 L83.4576774,110.540355 L83.6207957,110.475724 L83.783914,110.410286 L83.9462366,110.343232 L84.1077634,110.275369 L84.2692903,110.2067 L84.4300215,110.137222 L84.5907527,110.066128 L84.7506882,109.994227 L84.909828,109.921517 L85.0689677,109.848 L85.2273118,109.773675 L85.3848602,109.698542 L85.5424086,109.621793 L85.6991613,109.544236 L85.855914,109.465872 L86.011871,109.3867 L86.1662366,109.306719 L86.3213978,109.225931 L86.4757634,109.143527 L86.6293333,109.060315 L86.7821075,108.977103 L86.9348817,108.892276 L87.0868602,108.80664 L87.3892258,108.632138 L87.5388172,108.544079 L87.838,108.364729 L87.9867957,108.273438 L88.134,108.18134 L88.282,108.088433 L88.4284086,107.994719 L88.5748172,107.900197 L88.7204301,107.804867 L88.8652473,107.708729 L89.0100645,107.611783 L89.2965161,107.41466 L89.5813763,107.214305 L89.8630538,107.010719 L90.0030968,106.90731 L90.1431398,106.803094 L90.2815914,106.698877 L90.420043,106.593044 L90.5576989,106.486404 L90.6945591,106.379764 L90.8306237,106.271507 L90.9658925,106.162443 L91.1011613,106.052571 L91.2356344,105.941892 L91.3685161,105.831212 L91.5021935,105.718916 L91.6342796,105.605813 L91.7655699,105.492709 L91.8968602,105.37799 L92.1562581,105.146936 L92.2851613,105.029793 L92.4132688,104.91265 L92.5405806,104.793892 L92.6670968,104.675133 L92.7936129,104.554759 L92.9193333,104.434384 L93.0434624,104.313202 L93.1675914,104.191212 L93.2909247,104.067606 L93.4134624,103.944 L93.5352043,103.819586 L93.6561505,103.695172 L93.7763011,103.569143 L93.8956559,103.442305 L94.0142151,103.315468 L94.1327742,103.187015 L94.2497419,103.058562 L94.3667097,102.9293 L94.482086,102.799232 L94.5974624,102.668355 L94.712043,102.53667 L94.9380215,102.271685 L95.0502151,102.137576 L95.1608172,102.003468 L95.2714194,101.868552 L95.3812258,101.732828 L95.4894409,101.597103 L95.5976559,101.459764 L95.7050753,101.322424 L95.8116989,101.183468 L95.9167312,101.044512 L96.0217634,100.904749 L96.126,100.764985 L96.2294409,100.623606 L96.3312903,100.482227 L96.4331398,100.340039 L96.5341935,100.197044 L96.7331183,99.9094384 L96.8309892,99.7648276 L96.9288602,99.6194089 L97.0251398,99.4731823 L97.1206237,99.3269557 L97.2153118,99.1799212 L97.3092043,99.0320788 L97.4030968,98.8834286 L97.4953978,98.7339704 L97.5861075,98.5845123 L97.6768172,98.4342463 L97.7667312,98.2831724 L97.8558495,98.1320985 L97.9433763,97.9802167 L98.0309032,97.8275271 L98.1168387,97.6748374 L98.2019785,97.520532 L98.2863226,97.3662266 L98.369871,97.2119212 L98.4526237,97.056 L98.5345806,96.9000788 L98.6149462,96.7441576 L98.774086,96.4290837 L98.8520645,96.2707389 L98.9292473,96.1123941 L99.0048387,95.9532414 L99.0804301,95.7932808 L99.1544301,95.6333202 L99.2284301,95.4725517 L99.3008387,95.3109754 L99.3724516,95.149399 L99.4424731,94.9870148 L99.5124946,94.8238227 L99.5809247,94.6606305 L99.6485591,94.4966305 L99.7153978,94.3326305 L99.7814409,94.1678227 L99.8466882,94.0022069 L99.9103441,93.8365911 L99.9732043,93.6701675 L100.035269,93.502936 L100.156215,93.1684729 L100.215097,92.9996256 L100.273183,92.8307783 L100.329677,92.661931 L100.385376,92.4922759 L100.495183,92.1513498 L100.547699,91.9808867 L100.599419,91.8096158 L100.65114,91.6375369 L100.749806,91.2917635 L100.796753,91.1188768 L100.844495,90.9451823 L100.890645,90.7706798 L100.935204,90.5969852 L100.978968,90.4216749 L101.021935,90.2463645 L101.062516,90.0702463 L101.103892,89.8941281 L101.143677,89.7180099 L101.182667,89.5410837 L101.220065,89.3633498 L101.256667,89.1856158 L101.290882,89.0078818 L101.325097,88.828532 L101.359312,88.6499901 L101.390344,88.4706404 L101.422968,88.2904828 L101.452409,88.1103251 L101.481054,87.9301675 L101.509699,87.749202 L101.535957,87.5674286 L101.561419,87.3864631 L101.586086,87.2038818 L101.609957,87.0213005 L101.632237,86.8387192 L101.652925,86.6561379 L101.673613,86.4719409 L101.691914,86.2885517 L101.710215,86.1043547 L101.726129,85.9201576 L101.742839,85.7351527 L101.757161,85.5501478 L101.770688,85.364335 L101.782624,85.1785222 L101.803312,84.8052808 L101.812065,84.6186601 L101.820022,84.4312315 L101.825591,84.243803 L101.831957,84.0563744 L101.835935,83.8681379 L101.839118,83.6790936 L101.84071,83.4908571 L101.841505,83.2961576 L101.841505,55.1018916 L101.84071,54.9071921 L101.839118,54.7189557 L101.835935,54.5299113 L101.831957,54.3424828 L101.825591,54.1542463 L101.820022,53.9668177 L101.812065,53.7793892 L101.803312,53.5927685 L101.782624,53.2195271 L101.770688,53.0337143 L101.757161,52.8479015 L101.742839,52.6628966 L101.726129,52.4786995 L101.710215,52.2936946 L101.673613,51.9261084 L101.632237,51.55933 L101.609957,51.3767488 L101.586086,51.1941675 L101.561419,51.0123941 L101.535957,50.8306207 L101.509699,50.6488473 L101.481054,50.4678818 L101.452409,50.2877241 L101.422968,50.1075665 L101.390344,49.9274089 L101.359312,49.7480591 L101.256667,49.2124335 L101.220065,49.0346995 L101.182667,48.8569655 L101.143677,48.6800394 L101.103892,48.5039212 L101.062516,48.327803 L101.021935,48.1516847 L100.978968,47.9763744 L100.935204,47.801064 L100.890645,47.6273695 L100.844495,47.452867 L100.796753,47.2791724 L100.749806,47.1062857 L100.65114,46.7605123 L100.547699,46.4179704 L100.495183,46.2466995 L100.385376,45.9057734 L100.329677,45.7361182 L100.273183,45.5672709 L100.215097,45.3984236 L100.156215,45.2303842 L100.095742,45.0623448 L100.035269,44.8951133 L99.9732043,44.7278818 L99.9103441,44.562266 L99.8466882,44.3966502 L99.7814409,44.2310345 L99.7153978,44.0654187 L99.6485591,43.9014187 L99.5809247,43.7374187 L99.5124946,43.5742266 L99.4424731,43.4110345 L99.3724516,43.2494581 L99.3008387,43.0870739 L99.2284301,42.9254975 L99.1544301,42.7647291 L99.0804301,42.6047685 L99.0048387,42.4456158 L98.9292473,42.2856552 L98.8520645,42.1273103 L98.774086,41.9689655 L98.6149462,41.6538916 L98.5345806,41.4979704 L98.4526237,41.3420493 L98.369871,41.1861281 L98.2863226,41.0318227 L98.2019785,40.8775172 L98.1168387,40.7240197 L98.0309032,40.5705222 L97.9433763,40.4178325 L97.8558495,40.2659507 L97.7667312,40.1148768 L97.6768172,39.963803 L97.5861075,39.8135369 L97.4953978,39.6640788 L97.4030968,39.5146207 L97.2153118,39.218936 L97.1206237,39.0710936 L97.0251398,38.924867 L96.9288602,38.7786404 L96.8309892,38.6332217 L96.7331183,38.4886108 L96.5341935,38.2010049 L96.4331398,38.0580099 L96.3312903,37.9158227 L96.2294409,37.7744433 L96.126,37.6338719 L96.0217634,37.4933005 L95.9167312,37.3535369 L95.8116989,37.2145813 L95.7050753,37.0764335 L95.5976559,36.9382857 L95.3812258,36.6652217 L95.2714194,36.5294975 L95.1608172,36.3945813 L95.0502151,36.2604729 L94.9380215,36.1263645 L94.712043,35.8613793 L94.5974624,35.7296946 L94.482086,35.5988177 L94.3667097,35.4687488 L94.2497419,35.3394877 L94.1327742,35.2110345 L94.0142151,35.0825813 L93.8956559,34.9557438 L93.7763011,34.8289064 L93.6561505,34.7036847 L93.5352043,34.5784631 L93.4134624,34.4540493 L93.2909247,34.3304433 L93.1675914,34.2076453 L92.9193333,33.963665 L92.7936129,33.8432906 L92.6670968,33.7229163 L92.5405806,33.6041576 L92.4132688,33.4862069 L92.2851613,33.3682562 L92.1562581,33.2519212 L92.0265591,33.1355862 L91.8968602,33.0200591 L91.6342796,32.7922365 L91.5021935,32.679133 L91.3685161,32.5668374 L91.2356344,32.4561576 L91.1011613,32.3454778 L90.9658925,32.2356059 L90.8306237,32.1265419 L90.6937634,32.0182857 L90.5576989,31.9116453 L90.420043,31.8050049 L90.1431398,31.5949557 L90.0030968,31.4907389 L89.8630538,31.38733 L89.5813763,31.1837438 L89.2965161,30.9833892 L89.1532903,30.8848276 L89.0092688,30.786266 L88.8652473,30.6893202 L88.7204301,30.5931823 L88.5748172,30.4978522 L88.4284086,30.40333 L88.282,30.3096158 L88.134,30.2167094 L87.9867957,30.1246108 L87.838,30.0341281 L87.6884086,29.9436453 L87.5388172,29.8539704 L87.3892258,29.7659113 L87.238043,29.6786601 L87.0868602,29.5922167 L86.9348817,29.5057734 L86.7821075,29.4209458 L86.6293333,29.337734 L86.4757634,29.2545222 L86.3213978,29.1721182 L86.1662366,29.09133 L86.011871,29.0113498 L85.855914,28.9321773 L85.6991613,28.8538128 L85.5424086,28.7762562 L85.2273118,28.6243744 L85.0689677,28.5500493 L84.909828,28.476532 L84.7506882,28.4038227 L84.5907527,28.3319212 L84.4300215,28.2616355 L84.2692903,28.1913498 L84.1077634,28.1226798 L83.9462366,28.0548177 L83.783914,27.9885714 L83.6207957,27.9223251 L83.4576774,27.8576946 L83.2937634,27.7938719 L83.1298495,27.7308571 L82.9651398,27.6686502 L82.7996344,27.6080591 L82.634129,27.5482759 L82.467828,27.4893005 L82.3007312,27.431133 L82.1336344,27.3745813 L81.9665376,27.3188374 L81.7986452,27.2639015 L81.629957,27.2097734 L81.4612688,27.1572611 L81.2917849,27.1055567 L81.1215054,27.0546601 L80.9520215,27.0045714 L80.7809462,26.9560985 L80.6106667,26.9084335 L80.4387957,26.8623842 L80.2669247,26.816335 L80.0942581,26.7719015 L79.7489247,26.686266 L79.5754624,26.645064 L79.4012043,26.60467 L79.2269462,26.5658916 L79.0518925,26.5279212 L78.8776344,26.4907586 L78.7017849,26.4544039 L78.5259355,26.419665 L78.3492903,26.385734 L78.1726452,26.3534187 L77.996,26.3219113 L77.8177634,26.2912118 L77.6403226,26.2621281 L77.462086,26.2338522 L77.2838495,26.2063842 L77.1048172,26.180532 L76.9249892,26.1554877 L76.745957,26.1320591 L76.566129,26.1094384 L76.3855054,26.0876256 L76.2048817,26.0674286 L76.0234624,26.0480394 L75.842043,26.0294581 L75.6606237,26.0124926 L75.4784086,25.9971429 L75.2961935,25.982601 L75.1131828,25.968867 L74.930172,25.9559409 L74.7463656,25.9454384 L74.5633548,25.934936 L74.3787527,25.9260493 L74.1949462,25.9187783 L74.0103441,25.9123153 L73.8249462,25.9066601 L73.6395484,25.9026207 L73.4541505,25.8993892 L73.267957,25.8977734 L73.0817634,25.8969655 L72.8955699,25.8977734 L72.8955699,25.8977734 Z" id="Fill-15" fill="#3F6873"></path>
                <path d="M81.5814194,98.1094778 C81.5487957,103.291232 77.396043,107.487369 72.2844731,107.487369 C67.1530108,107.487369 62.9875269,103.258108 62.9875269,98.0480788 L81.5814194,98.0480788 L81.5814194,98.1094778" id="Fill-16" fill="#FFFFFF"></path>
                <path d="M81.6753118,96.8402956 C81.7063441,96.8435271 81.7373763,96.8459507 81.7684086,96.850798 C81.8607097,96.8661478 81.9514194,96.892 82.0381505,96.9283547 C82.3580215,97.0632709 82.6094624,97.3387586 82.7168817,97.6732217 C82.7455269,97.7645123 82.763828,97.8582266 82.7709892,97.9527488 C82.7733763,97.9842562 82.7733763,98.0165714 82.7749677,98.0480788 C82.7749677,98.1619901 82.7725806,98.2759015 82.7701935,98.3898128 C82.7550753,98.7937537 82.7224516,99.1960788 82.6651613,99.5967882 C82.533871,100.504847 82.2872043,101.395133 81.9307312,102.238562 C81.4835484,103.296887 80.866086,104.280079 80.110172,105.139665 C79.3287957,106.027527 78.4018065,106.781281 77.3777419,107.360532 C76.4833763,107.865458 75.5166022,108.236276 74.5164086,108.456828 C73.3912903,108.704847 72.2255914,108.763015 71.082172,108.629714 C69.8806667,108.489951 68.7054194,108.137714 67.6224731,107.590778 C66.4543871,107.001025 65.3976989,106.189103 64.5208387,105.208335 C63.7545806,104.353596 63.1267742,103.37202 62.670043,102.312079 C62.2530968,101.345852 61.980172,100.317419 61.8624086,99.2687882 C61.832172,98.9997635 61.8114839,98.729931 61.8019355,98.4584828 C61.797957,98.3671921 61.7963656,98.2767094 61.7947742,98.1854187 C61.7931828,98.0779704 61.7915914,97.97133 61.8075054,97.8654975 C61.8552473,97.5488079 62.0287097,97.2587783 62.2833333,97.069734 C62.3597204,97.0131823 62.4424731,96.9663251 62.5292043,96.9291626 C62.6159355,96.8928079 62.7074409,96.8661478 62.7997419,96.8516059 C62.8824946,96.8378719 62.9039785,96.8394877 62.9875269,96.8362562 C69.2170538,96.8362562 75.4505591,96.591468 81.6753118,96.8402956 L81.6753118,96.8402956 Z M64.2686022,99.2599015 C64.4237634,100.337616 64.7969462,101.381399 65.3539355,102.312079 C65.8942151,103.213675 66.6055699,104.008631 67.437871,104.641202 C68.1993548,105.218837 69.0603011,105.659941 69.9713763,105.935429 C70.8203871,106.192335 71.7115699,106.303823 72.5971828,106.269892 C73.4032258,106.238384 74.2044946,106.085695 74.9659785,105.814246 C75.8873978,105.485438 76.7483441,104.98536 77.4955054,104.347133 C78.3134839,103.648315 78.9938065,102.786305 79.4855484,101.822502 C79.7576774,101.2893 79.9717204,100.726207 80.1221075,100.14534 C80.1976989,99.8536946 80.2557849,99.5580099 80.3003441,99.2599015 L64.2686022,99.2599015 L64.2686022,99.2599015 Z" id="Fill-17" fill="#3F6873"></path>
                <path d="M41.6413118,57.5643153 L41.6413118,84.1096946 C41.6413118,88.4795271 42.4807742,92.6490049 44.0037419,96.454936 C41.4678495,95.1090049 36.7851613,91.7110542 37.1344731,85.0985419 C31.3640645,82.5747192 31.9067312,79.3528867 32.0873548,75.975133 C26.2413548,71.8403941 16.6141935,58.3172611 28.7183656,42.149931 C26.9646452,26.8486502 30.4362796,17.4279409 44.4039785,15.3799606 C44.4039785,15.3799606 52.0029032,-8.97929064 78.9985806,4.29663054 C95.5968602,0.272571429 112.824538,10.6934384 113.062452,28.9152118 C127.278409,38.3520788 123.360387,59.4854581 115.537075,66.4671724 C118.913226,77.3339901 115.122516,85.2762759 111.387505,86.6181675 C111.931763,92.9640788 105.163548,100.184118 100.855634,99.3398818 C103.205333,94.7979704 104.537333,89.6129852 104.537333,84.1096946 L104.537333,55.9049261 C104.537333,55.2101478 104.515849,54.5210246 104.474473,53.8375567 C103.105871,54.2988571 79.6781075,61.7693399 61.2544946,39.0597833 C61.2544946,39.0597833 52.1795484,55.5833892 41.6413118,57.5643153" id="Fill-18" fill="#295B68"></path>
                <path d="M67.3869462,70.9775764 C67.3869462,65.1260887 62.7074409,60.374936 56.9433978,60.374936 L50.2865806,60.374936 C44.5233333,60.374936 39.843828,65.1260887 39.843828,70.9775764 C39.843828,76.8298719 44.5233333,81.5810246 50.2865806,81.5810246 L56.9433978,81.5810246 C62.7074409,81.5810246 67.3869462,76.8298719 67.3869462,70.9775764" id="Fill-19" fill="#FFFFFF"></path>
                <path d="M57.0985591,58.7599803 C57.5584731,58.768867 58.0167957,58.7979507 58.4735269,58.8569261 C59.4601935,58.9845714 60.4301505,59.2374384 61.3555484,59.6082562 C62.4830538,60.0598621 63.542129,60.6867783 64.485828,61.4583054 C65.4613548,62.2556847 66.3127527,63.2073695 67.0010323,64.2689261 C67.6726022,65.3038227 68.1874194,66.4421281 68.5216129,67.6345616 C68.8677419,68.8714286 69.0173333,70.1632315 68.9695914,71.4485714 C68.917871,72.8203547 68.6385806,74.1808276 68.1420645,75.4572808 C67.5914409,76.8751133 66.7758495,78.1846897 65.7525806,79.3003744 C64.6990753,80.4491823 63.4291398,81.3895567 62.0287097,82.0536355 C60.9974839,82.5432118 59.8986237,82.8809064 58.7735054,83.0562167 C58.2189032,83.1418522 57.6595269,83.18467 57.0985591,83.1959803 C54.775914,83.2105222 52.4540645,83.2105222 50.1314194,83.1959803 C49.5704516,83.18467 49.011871,83.1418522 48.4564731,83.0562167 C47.3321505,82.8809064 46.2324946,82.5432118 45.2020645,82.0536355 C43.8016344,81.3895567 42.5316989,80.4491823 41.4781935,79.3003744 C40.4549247,78.1846897 39.6393333,76.8751133 39.0887097,75.4572808 C38.5921935,74.1808276 38.3129032,72.8203547 38.2611828,71.4485714 C38.2134409,70.1632315 38.3630323,68.8714286 38.7091613,67.6345616 C39.0433548,66.4421281 39.558172,65.3038227 40.2297419,64.2689261 C40.9180215,63.2073695 41.7694194,62.2556847 42.7449462,61.4583054 C43.6886452,60.6867783 44.7469247,60.0598621 45.8752258,59.6082562 C46.799828,59.2374384 47.7697849,58.9845714 48.7564516,58.8569261 C49.2131828,58.7979507 49.6715054,58.768867 50.1314194,58.7599803 C52.4540645,58.7454384 54.775914,58.7454384 57.0985591,58.7599803 L57.0985591,58.7599803 Z M50.2913548,61.9906995 C49.8752043,61.9931232 49.4606452,62.0189754 49.0476774,62.0779507 C48.2193548,62.1959015 47.4085376,62.4342266 46.6470538,62.7840394 C45.6094624,63.2606897 44.6665591,63.9425419 43.8804086,64.7786995 C43.1189247,65.5906207 42.5070323,66.5455369 42.0892903,67.5828571 C41.7137204,68.5143448 41.4972903,69.5096552 41.4471613,70.5138522 C41.3954409,71.5350148 41.514,72.5634483 41.8012473,73.5434089 C42.0574624,74.4151133 42.4449677,75.2456158 42.9470538,75.9993695 C43.9448602,77.498798 45.385871,78.6774975 47.0433118,79.3423842 C47.722043,79.6138325 48.4341935,79.7996453 49.1582796,79.8925517 C49.4948602,79.9361773 49.8330323,79.9579901 50.172,79.9644532 C52.4675914,79.9789951 54.7623871,79.9789951 57.0579785,79.9644532 C57.3969462,79.9579901 57.7351183,79.9361773 58.0716989,79.8925517 C58.7957849,79.7996453 59.5079355,79.6138325 60.1874624,79.3423842 C61.8114839,78.6912315 63.2286237,77.5456552 64.2232473,76.0890443 C64.7539785,75.3118621 65.1637634,74.4498522 65.4295269,73.5434089 C65.7056344,72.6006108 65.8257849,71.6125714 65.7891828,70.6293793 C65.7509892,69.6219507 65.5464946,68.622601 65.1820645,67.6846502 C64.7762581,66.6416749 64.1755054,65.6786798 63.4227742,64.8578719 C62.6477634,64.0120197 61.7128172,63.3188571 60.6815914,62.8300887 C59.9248817,62.4705813 59.118043,62.2225616 58.2921075,62.0941084 C57.8831183,62.0310936 57.4717419,61.9995862 57.0579785,61.9915074 C54.8029677,61.9769655 52.5471613,61.9906995 50.2913548,61.9906995 L50.2913548,61.9906995 Z" id="Fill-20" fill="#3F6873"></path>
                <path d="M100.955097,70.9775764 C100.955097,65.1260887 96.2755914,60.374936 90.5123441,60.374936 L83.8555269,60.374936 C78.0914839,60.374936 73.4119785,65.1260887 73.4119785,70.9775764 C73.4119785,76.8298719 78.0914839,81.5810246 83.8555269,81.5810246 L90.5123441,81.5810246 C96.2755914,81.5810246 100.955097,76.8298719 100.955097,70.9775764" id="Fill-21" fill="#FFFFFF"></path>
                <path d="M90.6675054,58.7599803 C91.1274194,58.768867 91.5857419,58.7979507 92.0424731,58.8569261 C93.0291398,58.9845714 93.9990968,59.2374384 94.9236989,59.6082562 C97.0402581,60.4557241 98.8990108,61.9204138 100.239763,63.7858128 C101.043419,64.9047291 101.658495,66.162601 102.047591,67.4899507 C102.423957,68.7712512 102.587871,70.1131429 102.537742,71.4485714 C102.486022,72.8203547 102.206731,74.1808276 101.710215,75.4572808 C101.159591,76.8751133 100.344,78.1846897 99.3207312,79.3003744 C98.2672258,80.4491823 96.9972903,81.3895567 95.5968602,82.0536355 C94.5664301,82.5432118 93.4667742,82.8809064 92.3424516,83.0562167 C91.7870538,83.1418522 91.2284731,83.18467 90.6675054,83.1959803 C88.3448602,83.2105222 86.0230108,83.2105222 83.7003656,83.1959803 C83.1393978,83.18467 82.5800215,83.1418522 82.0254194,83.0562167 C80.9003011,82.8809064 79.8014409,82.5432118 78.7702151,82.0536355 C77.3697849,81.3895567 76.0998495,80.4491823 75.0463441,79.3003744 C74.0230753,78.1846897 73.2074839,76.8751133 72.6568602,75.4572808 C72.1603441,74.1808276 71.8810538,72.8203547 71.8293333,71.4485714 C71.7815914,70.1632315 71.9311828,68.8714286 72.2773118,67.6345616 C72.6115054,66.4421281 73.1263226,65.3038227 73.7978925,64.2689261 C74.486172,63.2073695 75.3375699,62.2556847 76.3130968,61.4583054 C77.2567957,60.6867783 78.315871,60.0598621 79.4433763,59.6082562 C80.3687742,59.2374384 81.3387312,58.9845714 82.3253978,58.8569261 C82.782129,58.7979507 83.2404516,58.768867 83.7003656,58.7599803 C86.0230108,58.7454384 88.3448602,58.7454384 90.6675054,58.7599803 L90.6675054,58.7599803 Z M83.8603011,61.9906995 C83.4441505,61.9931232 83.0295914,62.0189754 82.6166237,62.0779507 C81.7883011,62.1959015 80.9774839,62.4342266 80.2152043,62.7840394 C79.1776129,63.2606897 78.2347097,63.9425419 77.4485591,64.7786995 C76.6870753,65.5906207 76.0751828,66.5455369 75.6574409,67.5828571 C75.281871,68.5143448 75.0654409,69.5096552 75.0153118,70.5138522 C74.9659785,71.4978522 75.0741935,72.4891232 75.3391613,73.4375764 C75.5842366,74.3133202 75.9629892,75.1494778 76.4563226,75.9096946 C77.4557204,77.451133 78.9206022,78.6645714 80.6114624,79.3423842 C81.2909892,79.6138325 82.0031398,79.7996453 82.7272258,79.8925517 C83.0638065,79.9361773 83.4019785,79.9579901 83.7409462,79.9644532 C86.0365376,79.9789951 88.3313333,79.9789951 90.6269247,79.9644532 C90.9658925,79.9579901 91.3040645,79.9361773 91.6406452,79.8925517 C92.3647312,79.7996453 93.0768817,79.6138325 93.7556129,79.3423842 C95.3796344,78.6912315 96.7967742,77.5456552 97.7913978,76.0890443 C98.322129,75.3118621 98.731914,74.4498522 98.9976774,73.5434089 C99.2737849,72.6006108 99.3939355,71.6125714 99.3573333,70.6293793 C99.3191398,69.6219507 99.1146452,68.622601 98.7502151,67.6846502 C98.3444086,66.6416749 97.7436559,65.6786798 96.9909247,64.8578719 C96.215914,64.0120197 95.2809677,63.3188571 94.2497419,62.8300887 C93.4930323,62.4705813 92.6861935,62.2225616 91.8610538,62.0941084 C91.4520645,62.0310936 91.0406882,61.9995862 90.6269247,61.9915074 C88.371914,61.9769655 86.1161075,61.9906995 83.8603011,61.9906995 L83.8603011,61.9906995 Z" id="Fill-22" fill="#3F6873"></path>
                <path d="M63.6917204,52.2589557 C63.7744731,52.2686502 63.7951613,52.2686502 63.8763226,52.2880394 C63.9980645,52.317931 64.1150323,52.3672118 64.2216559,52.4334581 C64.3282796,52.4997044 64.4245591,52.5829163 64.5057204,52.6798621 C64.5868817,52.776 64.6529247,52.8858719 64.7006667,53.0030148 C64.8327527,53.3277833 64.8184301,53.7034483 64.6616774,54.0169064 C64.6043871,54.1300099 64.5303871,54.2342266 64.4420645,54.3239015 C64.2869032,54.4806305 64.0895699,54.5929261 63.8763226,54.6454384 C63.7840215,54.6672512 63.6925161,54.6745222 63.597828,54.6785616 L44.9331183,54.6785616 C44.8384301,54.6745222 44.7469247,54.6672512 44.6546237,54.6454384 C44.4413763,54.5929261 44.244043,54.4806305 44.0888817,54.3239015 C44.0005591,54.2342266 43.9265591,54.1300099 43.8692688,54.0169064 C43.6973978,53.6743645 43.6973978,53.2591133 43.8692688,52.9165714 C43.9265591,52.803468 44.0005591,52.6992512 44.0888817,52.6095764 C44.1772043,52.5199015 44.2798495,52.4447685 44.3912473,52.386601 C44.5026452,52.3292414 44.6227957,52.2896552 44.746129,52.2694581 C44.8288817,52.256532 44.8495699,52.2581478 44.9331183,52.2549163 C51.1857204,52.2549163 57.4438925,52.0093202 63.6917204,52.2589557" id="Fill-23" fill="#3F6873"></path>
                <path d="M95.5196774,52.2589557 C95.6135699,52.270266 95.7042796,52.284 95.7949892,52.3138916 C96.0026667,52.3833695 96.1912473,52.5102069 96.3336774,52.6798621 C96.4148387,52.776 96.4808817,52.8858719 96.5286237,53.0030148 C96.5763656,53.1201576 96.6058065,53.2453793 96.6153548,53.3714089 C96.6256989,53.4982463 96.6153548,53.6258916 96.5867097,53.7494975 C96.5055484,54.0920394 96.2763871,54.3869163 95.9676559,54.5468768 C95.8562581,54.6042365 95.7361075,54.6438227 95.6127742,54.6640197 C95.5300215,54.6769458 95.5093333,54.67533 95.4257849,54.6785616 L76.7610753,54.6785616 C76.6775269,54.67533 76.6568387,54.6769458 76.574086,54.6640197 C76.4507527,54.6438227 76.3306022,54.6042365 76.2192043,54.5468768 C75.881828,54.3715665 75.6415269,54.0362956 75.5818495,53.6565911 C75.5627527,53.5305616 75.5627527,53.4029163 75.5818495,53.2768867 C75.6017419,53.151665 75.6407312,53.0296749 75.6972258,52.9165714 C75.7545161,52.803468 75.8285161,52.6992512 75.9168387,52.6095764 C76.072,52.4528473 76.2693333,52.3405517 76.4825806,52.2880394 C76.5748817,52.2654187 76.6663871,52.2589557 76.7610753,52.2549163 C83.0136774,52.2549163 89.2718495,52.0093202 95.5196774,52.2589557" id="Fill-24" fill="#3F6873"></path>
                <path d="M109.325849,145.041754 C107.854602,146.16067 106.117591,147.221419 104.559613,148.220768 L40.2305376,148.220768 C38.6725591,147.221419 36.7891398,146.16067 35.3178925,145.041754 L109.325849,145.041754" id="Fill-25" fill="#69BAD9"></path>
                <path d="M110.513828,136.64867 C111.253032,137.672256 112.176839,138.707961 112.816581,139.803448 L33.6469247,139.803448 C34.2866667,138.707961 35.2510538,137.647212 35.9894624,136.624433 L110.513828,136.64867" id="Fill-26" fill="#69BAD9"></path>
                <path d="M103.825978,64.3262857 C108.929591,64.358601 113.063247,68.5757438 113.063247,73.7655764 C113.063247,78.974798 108.896968,83.204867 103.765505,83.204867 L103.765505,64.3254778 L103.825978,64.3262857" id="Fill-27" fill="#F2F2F2"></path>
                <path d="M103.841097,63.1144631 C104.238946,63.1193103 104.635204,63.1427389 105.029871,63.1912118 C105.929806,63.3010837 106.815419,63.5305222 107.657269,63.8722562 C108.712366,64.3004335 109.696645,64.9047291 110.56157,65.6528276 C111.518,66.4792906 112.32643,67.4794483 112.937527,68.5943251 C113.414946,69.4636059 113.769828,70.4007488 113.990237,71.3710148 C114.248043,72.5093202 114.31886,73.6904433 114.202688,74.8529852 C114.080151,76.0761182 113.746753,77.2750148 113.220796,78.3826207 C112.654258,79.5758621 111.866516,80.6592315 110.910882,81.5616355 C110.046753,82.3784039 109.047355,83.0465222 107.966,83.5272118 C107.013548,83.9505419 106.000624,84.2276453 104.968602,84.3472118 C104.702839,84.3779113 104.437075,84.3989163 104.16972,84.4086108 C104.079806,84.4126502 103.991484,84.414266 103.900774,84.4158818 C103.794946,84.4174975 103.689914,84.4191133 103.585677,84.4029557 C103.273763,84.3544828 102.988108,84.1783645 102.801914,83.9198424 C102.746215,83.8422857 102.700065,83.758266 102.663462,83.6702069 C102.627656,83.5821478 102.601398,83.4892414 102.587075,83.3955271 C102.573548,83.3115074 102.57514,83.2896946 102.571957,83.204867 L102.571957,64.3254778 C102.57514,64.2446897 102.573548,64.2236847 102.585484,64.1437044 C102.599011,64.0532217 102.622882,63.9643547 102.655505,63.8795271 C102.778043,63.5652611 103.03028,63.313202 103.340602,63.1928276 C103.454387,63.149202 103.570559,63.128197 103.691505,63.1160788 C103.766301,63.1144631 103.766301,63.1136552 103.841097,63.1144631 L103.841097,63.1144631 Z M104.959054,81.9041773 C106.020516,81.7466404 107.048559,81.3677438 107.965204,80.8022266 C108.854,80.2536749 109.636172,79.5314286 110.259204,78.6855764 C110.828925,77.9132414 111.263376,77.0391133 111.53471,76.1140887 C111.786946,75.2512709 111.897548,74.3472512 111.864129,73.4480788 C111.833097,72.6296946 111.681914,71.8161576 111.415355,71.0430148 C111.091505,70.1066798 110.598968,69.2333596 109.970366,68.4747586 C109.282086,67.6442562 108.433075,66.9527094 107.483011,66.4534384 C106.957849,66.1779507 106.403247,65.9606305 105.83114,65.8079409 C105.543892,65.7311921 105.252667,65.6722167 104.959054,65.6261675 L104.959054,81.9041773 L104.959054,81.9041773 Z" id="Fill-28" fill="#3F6873"></path>
                <path d="M73.4119785,72.9972808 L67.8349247,72.9972808 L67.8349247,68.9578719 L73.4119785,68.9578719 L73.4119785,72.9972808" id="Fill-29" fill="#3F6873"></path>
            </g>
        </g>
    </g>
</svg>