<?xml version="1.0" encoding="UTF-8" standalone="no"?>
<svg width="97px" height="74px" viewBox="0 0 97 74" version="1.1" xmlns="http://www.w3.org/2000/svg" xmlns:xlink="http://www.w3.org/1999/xlink">
    <!-- Generator: sketchtool 3.8.2 (29753) - http://www.bohemiancoding.com/sketch -->
    <title>6404FD00-66F8-4396-BAD1-C160A34CA2A0</title>
    <desc>Created with sketchtool.</desc>
    <defs></defs>
    <g id="Page-1" stroke="none" stroke-width="1" fill="none" fill-rule="evenodd">
        <g id="Desktop" transform="translate(-929.000000, -136.000000)">
            <g id="Demo-box" transform="translate(864.000000, 104.000000)">
                <g id="server" transform="translate(65.000000, 32.000000)">
                    <path d="M92.9478411,0.281327586 C93.0422715,0.284517241 93.136702,0.290896552 93.2311325,0.30237931 C93.461106,0.331724138 93.6878675,0.389137931 93.9037086,0.473982759 C94.2595894,0.613051724 94.5852781,0.82612069 94.8557219,1.09468966 C95.1428675,1.3792069 95.3657748,1.72624138 95.5051722,2.10453448 C95.5771192,2.29910345 95.6272252,2.50196552 95.6535629,2.70801724 C95.6651258,2.8017931 95.6715497,2.89556897 95.6747616,2.98934483 C95.7646954,9.91855172 95.6760464,16.8483966 95.6760464,23.7782414 C95.6715497,24.078069 95.625298,24.3747069 95.528298,24.6598621 C95.3908278,25.0630345 95.1589272,25.4323966 94.8557219,25.7335 C94.5852781,26.002069 94.258947,26.2151379 93.9030662,26.3542069 C93.6872252,26.4390517 93.4604636,26.4964655 93.2304901,26.5258103 C93.136702,26.5372931 93.0422715,26.5436724 92.9478411,26.5468621 C62.9953974,26.9289828 33.038457,26.5481379 3.08408609,26.5481379 C2.78216556,26.5436724 2.48345695,26.4977414 2.19695364,26.4014138 C1.81216556,26.2719138 1.45692715,26.0582069 1.16271523,25.780069 C0.869788079,25.502569 0.638529801,25.1619138 0.490139073,24.7880862 C0.404701987,24.5737414 0.346887417,24.3485517 0.317337748,24.1201724 C0.305774834,24.0263966 0.299350993,23.9326207 0.296139073,23.8388448 C0.210059603,16.9096379 0.295496689,9.9797931 0.295496689,3.05058621 C0.298708609,2.75075862 0.345602649,2.45412069 0.442602649,2.16960345 C0.565298013,1.80789655 0.764437086,1.47298276 1.0226755,1.19037931 C1.31046358,0.876517241 1.67019868,0.629637931 2.06783444,0.473982759 C2.2836755,0.389137931 2.5097947,0.331724138 2.73976821,0.30237931 C2.83419868,0.290896552 2.92862914,0.284517241 3.0230596,0.281327586 C32.9960596,-0.0842068966 62.9748411,-0.0842068966 92.9478411,0.281327586 L92.9478411,0.281327586 Z M3.50741722,3.47034483 L3.50741722,23.3584828 L92.4641258,23.3584828 L92.4641258,3.47034483 L3.50741722,3.47034483 L3.50741722,3.47034483 Z" id="Fill-1" fill="#9E9E9E"></path>
                    <path d="M92.9786755,29.3014483 C93.0724636,29.3046379 93.1656093,29.3103793 93.258755,29.3225 C93.4636755,29.3480172 93.6660265,29.3971379 93.8600265,29.4679483 C94.195351,29.5897931 94.5062649,29.7767069 94.7702848,30.0152931 C95.0824834,30.2978966 95.3285166,30.6506724 95.4833311,31.0410862 C95.5674834,31.2528793 95.6246556,31.4748793 95.6535629,31.7007069 C95.6657682,31.7932069 95.6715497,31.8857069 95.6747616,31.9794828 C95.7589139,38.9284655 95.6760464,45.8793621 95.6760464,52.8296207 C95.6721921,53.1262586 95.6259404,53.419069 95.5302252,53.7003966 C95.4081722,54.0576379 95.2116026,54.3887241 94.9565762,54.6681379 C94.672,54.9788103 94.3167616,55.2225 93.9236225,55.3768793 C93.710351,55.4604483 93.4861589,55.5172241 93.258755,55.545931 C93.1656093,55.5580517 93.0724636,55.5637931 92.9786755,55.5669828 C63.0056755,55.9427241 33.0281788,55.5682586 3.05260927,55.5682586 C2.75390066,55.564431 2.45840397,55.5185 2.17511258,55.4234483 C1.77362252,55.2882069 1.40553642,55.0604655 1.10554305,54.7631897 C0.838311258,54.4971724 0.626324503,54.176931 0.487569536,53.8273448 C0.403417219,53.6155517 0.346245033,53.3935517 0.317337748,53.1677241 C0.30513245,53.0752241 0.299350993,52.9827241 0.296139073,52.8895862 C0.207490066,45.9399655 0.295496689,38.9897069 0.295496689,32.0394483 C0.298708609,31.7428103 0.344960265,31.4493621 0.440675497,31.1680345 C0.548596026,30.8522586 0.714331126,30.5568966 0.927602649,30.3004483 C1.22502649,29.942569 1.61302649,29.6618793 2.04727815,29.4915517 C2.26054967,29.4079828 2.48474172,29.3512069 2.7121457,29.3225 C2.80529139,29.3103793 2.89843709,29.3046379 2.99158278,29.3014483 C32.9851391,28.925069 62.9857616,28.925069 92.9786755,29.3014483 L92.9786755,29.3014483 Z M3.50741722,32.4904655 L3.50741722,52.3786034 L92.4641258,52.3786034 L92.4641258,32.4904655 L3.50741722,32.4904655 L3.50741722,32.4904655 Z" id="Fill-2" fill="#9E9E9E"></path>
                    <path d="M54.3296358,8.80982759 C54.3803841,8.8162069 54.4311325,8.82131034 54.4818808,8.82896552 C54.6334834,8.85448276 54.7812318,8.89913793 54.9212715,8.9622931 C55.0619536,9.02481034 55.1936424,9.10582759 55.3131258,9.20151724 C55.5129073,9.361 55.6767152,9.56322414 55.791702,9.79160345 C55.9073311,10.018069 55.9728543,10.2700517 55.9831325,10.5239483 C55.9914834,10.7274483 55.9645033,10.9315862 55.9034768,11.1261552 C55.888702,11.1746379 55.8694305,11.2218448 55.8520861,11.2696897 L50.5382848,24.281569 L56.7687682,27.0737931 L56.9049536,27.1420517 C56.9479934,27.1682069 56.9923179,27.1924483 57.0347152,27.2217931 C57.1188675,27.2772931 57.1985232,27.3410862 57.2723974,27.4106207 C57.5306358,27.6562241 57.7117881,27.9758276 57.7888742,28.3222241 C57.8107152,28.4211034 57.828702,28.5340172 57.8293444,28.6360862 L57.837053,28.7100862 C57.8402649,28.8446897 57.8447616,28.8797759 57.8306291,29.0137414 C57.803649,29.2650862 57.7227086,29.5106897 57.5942318,29.7301379 C57.5254967,29.8462414 57.5010861,29.8704828 57.4182185,29.9776552 L44.0000993,45.8474655 C43.9082384,45.9476207 43.8876821,45.9763276 43.7829735,46.0643621 C43.6262318,46.1957759 43.4463642,46.3003966 43.253649,46.3724828 C43.0615762,46.444569 42.8566556,46.4834828 42.6510927,46.4873103 C42.4455298,46.4917759 42.2399669,46.4598793 42.0446821,46.3954483 C41.8988609,46.3463276 41.7588212,46.2787069 41.629702,46.1951379 C41.2404172,45.9431552 40.9603377,45.5418966 40.8575563,45.0921552 C40.7888212,44.7929655 40.7997417,44.4778276 40.8877483,44.1837414 C40.9269338,44.0529655 40.9449205,44.0242586 41.0001656,43.8992241 L47.3115894,31.2452241 L41.8224172,28.7853621 L41.5937285,28.7222069 C41.5455497,28.7068966 41.4967285,28.6935 41.4491921,28.6769138 C41.3541192,28.6411897 41.2622583,28.5984483 41.174894,28.5480517 C40.8671921,28.3726207 40.6153775,28.1072414 40.457351,27.7914655 C40.4117417,27.6983276 40.3674172,27.5943448 40.3423642,27.4941897 L40.3275894,27.4533621 C40.2929007,27.3238621 40.280053,27.2913276 40.2620662,27.1586379 C40.2151722,26.8071379 40.2755563,26.4441552 40.4335828,26.1264655 C40.4785497,26.0358793 40.5312252,25.9491207 40.5916093,25.8674655 C40.6211589,25.8266379 40.6539205,25.7883621 40.6860397,25.7488103 L41.1517682,25.2148621 L52.7230331,9.53643103 L52.8193907,9.41777586 C52.8547219,9.38077586 52.8881258,9.34186207 52.9253841,9.30741379 C52.9992583,9.23596552 53.0789139,9.17153448 53.1630662,9.11539655 C53.375053,8.97122414 53.6178742,8.87362069 53.8703311,8.83024138 C54.0045894,8.80727586 54.0399205,8.80982759 54.176106,8.80344828 C54.2268543,8.806 54.278245,8.80791379 54.3296358,8.80982759" id="Fill-3" fill="#FFBD00"></path>
                    <path d="M54.5795232,5.62846552 L54.7876556,5.65143103 L54.8801589,5.66291379 L55.0163444,5.68332759 L55.1782252,5.71394828 L55.3343245,5.74712069 L55.4891391,5.78667241 L55.6433113,5.83005172 L55.7955563,5.87917241 L55.9452318,5.93275862 L56.0949073,5.99144828 L56.2426556,6.05460345 L56.3878344,6.12222414 L56.5298013,6.19494828 L56.6704834,6.27213793 L56.808596,6.35251724 L56.9428543,6.43736207 L57.0751854,6.52794828 L57.2043046,6.62108621 L57.3276424,6.71741379 L57.4336358,6.80417241 L57.5351325,6.8922069 L57.6334172,6.98215517 L57.7284901,7.07465517 L57.8216358,7.1697069 L57.9115695,7.26731034 L57.9995762,7.36618966 L58.0843709,7.46825862 L58.1659536,7.57160345 L58.2462517,7.67813793 L58.322053,7.78594828 L58.3959272,7.89567241 L58.4665894,8.00858621 L58.5346821,8.12277586 L58.5995629,8.23951724 L58.6612318,8.35689655 L58.7203311,8.47746552 L58.7755762,8.59867241 L58.8276093,8.72051724 L58.8764305,8.84427586 L58.9213974,8.96931034 L58.9631523,9.09434483 L59.0016954,9.2212931 L59.0363841,9.34887931 L59.0678609,9.47646552 L59.0961258,9.60596552 L59.1211788,9.73546552 L59.1423775,9.86560345 L59.1603642,9.99765517 L59.1744967,10.1297069 L59.1854172,10.2623966 L59.1924834,10.3912586 L59.1956954,10.5016207 L59.1963377,10.6081552 L59.195053,10.7140517 L59.1911987,10.8199483 L59.1854172,10.9258448 L59.1770662,11.0317414 L59.1667881,11.1363621 L59.1539404,11.2416207 L59.1391656,11.3462414 L59.1218212,11.4515 L59.1025497,11.5548448 L59.081351,11.6588276 L59.0575828,11.7615345 L59.031245,11.8648793 L59.0029801,11.9669483 L58.9682914,12.0824138 L58.9284636,12.2029828 L58.8963444,12.2910172 L58.8475232,12.4217931 L54.6765232,22.6363448 L58.1511788,24.1948103 L58.4550265,24.346 L58.6323245,24.4512586 L58.7119801,24.4997414 L58.8199007,24.5686379 L58.917543,24.6356207 L59.0029801,24.6975 L59.0877748,24.7600172 L59.1712848,24.8257241 L59.2528675,24.8927069 L59.3338079,24.9616034 L59.4128212,25.0317759 L59.4886225,25.1019483 L59.5567152,25.1682931 L59.6228808,25.234 L59.6877616,25.3016207 L59.7513576,25.3698793 L59.8130265,25.4400517 L59.8734106,25.5095862 L59.9318675,25.5810345 L59.9890397,25.6524828 L60.0455695,25.7264828 L60.1001722,25.8004828 L60.1534901,25.8757586 L60.2055232,25.9516724 L60.2556291,26.0288621 L60.3038079,26.1060517 L60.3513444,26.1832414 L60.397596,26.2629828 L60.4419205,26.3433621 L60.4849603,26.4250172 L60.5267152,26.5073103 L60.566543,26.5883276 L60.6050861,26.6718966 L60.641702,26.7554655 L60.6770331,26.8403103 L60.7110795,26.926431 L60.7438411,27.0131897 L60.7746755,27.0993103 L60.8035828,27.1867069 L60.8312053,27.2753793 L60.857543,27.3646897 L60.8819536,27.4546379 L60.9044371,27.5445862 L60.9256358,27.6345345 L60.9461921,27.7308621 L60.9654636,27.8322931 L60.9834503,27.9394655 L61.0007947,28.0536552 L61.0155695,28.1786897 L61.0284172,28.3126552 L61.0374106,28.4593793 L61.0367682,28.4262069 L61.0444768,28.498931 L61.0502583,28.7177414 L61.051543,28.7815345 L61.0521854,28.8772241 L61.0502583,28.9971552 L61.0444768,29.1228276 L61.0354834,29.2402069 L61.0239205,29.3563103 L61.0091457,29.4819828 L60.9898742,29.6121207 L60.9667483,29.7422586 L60.941053,29.8717586 L60.9115033,29.9999828 L60.8787417,30.126931 L60.8421258,30.2532414 L60.802298,30.3795517 L60.7592583,30.5033103 L60.713649,30.626431 L60.6641854,30.7482759 L60.6108675,30.8688448 L60.5549801,30.9894138 L60.4952384,31.107431 L60.4329272,31.2254483 L60.3706159,31.3332586 L60.3108742,31.4327759 L60.2479205,31.533569 L60.1772583,31.6381897 L60.1072384,31.7357931 L60.0494238,31.8129828 L60.009596,31.8633793 L59.9170927,31.9820345 L46.4206026,47.9449828 L46.3178212,48.0578966 L46.2741391,48.1057414 L46.2073311,48.1759138 L46.121894,48.2620345 L46.0293907,48.349431 L45.9407417,48.4285345 L45.8533775,48.5031724 L45.7730795,48.5688793 L45.6889272,48.6345862 L45.6034901,48.6996552 L45.5174106,48.7615345 L45.4281192,48.8234138 L45.3394702,48.8801897 L45.2501788,48.9363276 L45.1570331,48.9924655 L45.0645298,49.0447759 L44.9720265,49.0945345 L44.8763113,49.1442931 L44.7799536,49.1908621 L44.6842384,49.2355172 L44.5853113,49.2782586 L44.4857417,49.3197241 L44.3855298,49.358 L44.2840331,49.395 L44.181894,49.4288103 L44.0810397,49.4613448 L43.9789007,49.4906897 L43.8741921,49.5187586 L43.7707682,49.5442759 L43.666702,49.5672414 L43.5619934,49.5882931 L43.4572848,49.607431 L43.3512914,49.6240172 L43.245298,49.6386897 L43.1386623,49.6501724 L43.0326689,49.6603793 L42.9260331,49.6680345 L42.8181126,49.6731379 L42.7108344,49.6763276 L42.6029139,49.6776034 L42.4962781,49.6756897 L42.3883576,49.6731379 L42.2810795,49.6661207 L42.1757285,49.6578276 L42.0697351,49.6476207 L41.9618146,49.6348621 L41.8558212,49.6195517 L41.7523974,49.6029655 L41.646404,49.5838276 L41.541053,49.5608621 L41.4376291,49.5378966 L41.3335629,49.5111034 L41.2314238,49.4830345 L41.128,49.4530517 L41.0168675,49.4173276 L40.8736159,49.366931 L40.723298,49.3088793 L40.5755497,49.247 L40.4303709,49.1787414 L40.2871192,49.1072931 L40.1457947,49.0313793 L40.0076821,48.9503621 L39.8766358,48.868069 L39.7706424,48.7972586 L39.6697881,48.7264483 L39.5715033,48.6543621 L39.4757881,48.5797241 L39.3832848,48.5031724 L39.2914238,48.4247069 L39.2021325,48.3449655 L39.1154106,48.2613966 L39.0299735,48.1771897 L38.947106,48.091069 L38.8674503,48.0036724 L38.7890795,47.9137241 L38.7126358,47.8225 L38.639404,47.7293621 L38.567457,47.6343103 L38.4987219,47.5379828 L38.4319139,47.4403793 L38.3670331,47.3408621 L38.3053642,47.239431 L38.2449801,47.138 L38.1878079,47.0333793 L38.1332053,46.9274828 L38.0805298,46.8203103 L38.0304238,46.7118621 L37.9835298,46.6027759 L37.9385629,46.4917759 L37.8961656,46.3788621 L37.8563377,46.2646724 L37.8190795,46.1498448 L37.7850331,46.0331034 L37.7535563,45.917 L37.7233642,45.7919655 L37.691245,45.6407759 L37.6636225,45.482569 L37.6404967,45.3243621 L37.6231523,45.1655172 L37.6103046,45.0073103 L37.602596,44.8478276 L37.6006689,44.6896207 L37.602596,44.5314138 L37.610947,44.371931 L37.6237947,44.2137241 L37.6417815,44.0567931 L37.6649073,43.8992241 L37.6931722,43.7422931 L37.7265762,43.586 L37.7651192,43.429069 L37.8055894,43.2861724 L37.8415629,43.1687931 L37.8794636,43.0558793 L37.9225033,42.9365862 L37.9674702,42.8249483 L38.0060132,42.7362759 L38.032351,42.6769483 L38.0946623,42.5378793 L42.9549404,32.7928448 L40.7271523,31.7944828 L40.6873245,31.7836379 L40.5537086,31.7415345 L40.465702,31.7147414 L40.3468609,31.6726379 L40.2363709,31.6305345 L40.1393709,31.5916207 L40.0417285,31.5501552 L39.9453709,31.5061379 L39.8509404,31.4608448 L39.7571523,31.4136379 L39.6640066,31.3638793 L39.5734305,31.3134828 L39.4905629,31.265 L39.4115497,31.2171552 L39.3331788,31.1680345 L39.2567351,31.1163621 L39.1802914,31.0640517 L39.1057748,31.0111034 L39.0312583,30.9549655 L38.9580265,30.8988276 L38.8873642,30.8420517 L38.8173444,30.7833621 L38.7479669,30.7233966 L38.6792318,30.6621552 L38.6124238,30.5996379 L38.5469007,30.5364828 L38.4820199,30.4720517 L38.4197086,30.4063448 L38.3573974,30.3406379 L38.2957285,30.2717414 L38.2366291,30.2028448 L38.1781722,30.1320345 L38.1216424,30.0612241 L38.0651126,29.9885 L38.0105099,29.9145 L37.9578344,29.8411379 L37.9058013,29.7658621 L37.8544106,29.6886724 L37.8055894,29.6114828 L37.7574106,29.5317414 L37.7105166,29.452 L37.6661921,29.3722586 L37.6225099,29.2906034 L37.5801126,29.2083103 L37.5370728,29.119 L37.4933907,29.0245862 L37.4490662,28.924431 L37.4047417,28.8172586 L37.3597748,28.6992414 L37.3154503,28.5722931 L37.2717682,28.4345 L37.2781921,28.4568276 L37.2602053,28.4083448 L37.2030331,28.1984655 L37.1863311,28.1359483 L37.1632053,28.0421724 L37.1368675,27.9267069 L37.112457,27.8029483 L37.0931854,27.6868448 L37.0777682,27.5771207 L37.0668477,27.4858966 L37.0572119,27.3933966 L37.0488609,27.3015345 L37.0424371,27.2083966 L37.0379404,27.1152586 L37.0353709,27.0240345 L37.0347285,26.9308966 L37.0353709,26.8396724 L37.037298,26.7478103 L37.0417947,26.6559483 L37.0475762,26.5647241 L37.0552848,26.4728621 L37.0642781,26.3816379 L37.0751987,26.2923276 L37.087404,26.2004655 L37.1015364,26.1098793 L37.117596,26.0192931 L37.1349404,25.9299828 L37.1542119,25.8406724 L37.1747682,25.7513621 L37.1972517,25.6626897 L37.2216623,25.5733793 L37.2473576,25.4859828 L37.2749801,25.3979483 L37.3038874,25.3111897 L37.3340795,25.2231552 L37.3674834,25.1363966 L37.4008874,25.0521897 L37.4368609,24.965431 L37.4747616,24.8805862 L37.513947,24.7957414 L37.555702,24.7102586 L37.602596,24.6183966 L37.652702,24.5246207 L37.7047351,24.4340345 L37.7586954,24.3428103 L37.8145828,24.2528621 L37.8723974,24.1648276 L37.9321391,24.077431 L38.0002318,23.9817414 L38.0773179,23.8809483 L38.1357748,23.8075862 L38.2237815,23.7004138 L38.6368344,23.2251552 L50.1734106,7.59584483 L50.3866821,7.33110345 L50.5292914,7.17927586 L50.5941722,7.11101724 L50.684106,7.0217069 L50.7714702,6.94005172 L50.8504834,6.86860345 L50.9314238,6.79843103 L51.0130066,6.73144828 L51.0965166,6.66510345 L51.1813113,6.60067241 L51.2680331,6.5387931 L51.3592517,6.47563793 L51.4665298,6.40418966 L51.5808742,6.33401724 L51.6965033,6.26639655 L51.8140596,6.20196552 L51.9322583,6.14136207 L52.0517417,6.08394828 L52.1725099,6.02972414 L52.2952053,5.97868966 L52.4191854,5.93084483 L52.5438079,5.88682759 L52.671,5.84408621 L52.7981921,5.80708621 L52.9260265,5.77136207 L53.0570728,5.74010345 L53.1887616,5.71203448 L53.3127417,5.68906897 L53.4290132,5.66993103 L53.5478543,5.65334483 L53.6731192,5.63931034 L53.793245,5.62846552 L53.8921722,5.62336207 L53.957053,5.62017241 L54.1773907,5.61187931 L54.5795232,5.62846552 L54.5795232,5.62846552 Z M54.0893841,8.80727586 L54.0546954,8.80855172 L54.0225762,8.81046552 L53.990457,8.81301724 L53.9557682,8.81684483 L53.9165828,8.82258621 L53.8703311,8.83024138 L53.8227947,8.83917241 L53.7759007,8.84874138 L53.7290066,8.86022414 L53.682755,8.87298276 L53.6371457,8.88701724 L53.5915364,8.90168966 L53.5459272,8.91763793 L53.5016026,8.93486207 L53.4572781,8.95336207 L53.413596,8.97313793 L53.3705563,8.99418966 L53.3275166,9.01651724 L53.2857616,9.03884483 L53.2440066,9.06308621 L53.2035364,9.08796552 L53.1630662,9.11539655 L53.1315894,9.13708621 L53.100755,9.15941379 L53.0699205,9.18174138 L53.0403709,9.20598276 L53.0101788,9.23086207 L52.9819139,9.25574138 L52.9530066,9.28062069 L52.9253841,9.30741379 L52.898404,9.33356897 L52.8714238,9.36163793 L52.8193907,9.41777586 L52.7230331,9.53643103 L41.1517682,25.2148621 L40.6860397,25.7488103 L40.6378609,25.8075 L40.6140927,25.8368448 L40.5916093,25.8674655 L40.5691258,25.8980862 L40.5472848,25.9299828 L40.5267285,25.9612414 L40.5068146,25.9931379 L40.487543,26.0263103 L40.4689139,26.0588448 L40.4509272,26.0926552 L40.4335828,26.1264655 L40.4188079,26.1564483 L40.4053179,26.186431 L40.3918278,26.2164138 L40.3789801,26.2483103 L40.3667748,26.278931 L40.3552119,26.3095517 L40.343649,26.3408103 L40.3327285,26.3727069 L40.3230927,26.4039655 L40.3140993,26.4358621 L40.305106,26.4683966 L40.296755,26.4996552 L40.2826225,26.5647241 L40.2768411,26.5966207 L40.2704172,26.6291552 L40.2659205,26.6623276 L40.2607815,26.6948621 L40.2569272,26.7280345 L40.2537152,26.760569 L40.2511457,26.7937414 L40.2492185,26.8269138 L40.2479338,26.8600862 L40.246649,26.8932586 L40.246649,26.9589655 L40.2479338,26.9921379 L40.2492185,27.0253103 L40.2517881,27.0584828 L40.2543576,27.0916552 L40.2620662,27.1586379 L40.2684901,27.2032931 L40.2749139,27.2422069 L40.2813377,27.2760172 L40.288404,27.3072759 L40.2961126,27.3378966 L40.305106,27.371069 L40.3275894,27.4533621 L40.3423642,27.4941897 L40.3526424,27.5324655 L40.3648477,27.5701034 L40.3783377,27.6077414 L40.3924702,27.6453793 L40.4078874,27.6836552 L40.423947,27.7200172 L40.457351,27.7914655 L40.4727682,27.8201724 L40.4888278,27.8495172 L40.5048874,27.8782241 L40.5215894,27.906931 L40.537649,27.935 L40.5556358,27.963069 L40.5736225,27.9905 L40.5935364,28.017931 L40.6121656,28.0447241 L40.6320795,28.0715172 L40.6519934,28.0970345 L40.6731921,28.1225517 L40.6937483,28.1487069 L40.7155894,28.1735862 L40.7374305,28.1984655 L40.7599139,28.2227069 L40.7830397,28.2456724 L40.8061656,28.2699138 L40.8299338,28.2922414 L40.878755,28.3368966 L40.9031656,28.3585862 L40.9295033,28.3796379 L40.9551987,28.4000517 L40.9815364,28.4211034 L41.0078742,28.4402414 L41.0618344,28.4785172 L41.089457,28.4963793 L41.1177219,28.5142414 L41.1459868,28.5314655 L41.174894,28.5480517 L41.2076556,28.5665517 L41.2410596,28.5844138 L41.275106,28.6022759 L41.3091523,28.6188621 L41.3438411,28.6335345 L41.3785298,28.6488448 L41.4138609,28.6628793 L41.4491921,28.6769138 L41.4851656,28.6883966 L41.5211391,28.6998793 L41.5937285,28.7222069 L41.8224172,28.7853621 L47.3115894,31.2452241 L41.0001656,43.8992241 L40.9648344,43.9776897 L40.950702,44.0102241 L40.9378543,44.039569 L40.925649,44.0695517 L40.9140861,44.1014483 L40.9012384,44.1397241 L40.8877483,44.1837414 L40.8723311,44.2398793 L40.8581987,44.2953793 L40.8459934,44.3515172 L40.8363576,44.4076552 L40.8280066,44.464431 L40.8215828,44.5218448 L40.8164437,44.5792586 L40.8138742,44.6360345 L40.8132318,44.6940862 L40.8138742,44.7502241 L40.8164437,44.8076379 L40.8209404,44.8656897 L40.8273642,44.9218276 L40.8357152,44.9786034 L40.845351,45.0360172 L40.8575563,45.0921552 L40.8671921,45.1336207 L40.878755,45.1763621 L40.8909603,45.2171897 L40.9044503,45.2580172 L40.9185828,45.2988448 L40.9333576,45.3396724 L40.9500596,45.3792241 L40.9667616,45.4194138 L40.9847483,45.4576897 L41.0040199,45.4959655 L41.0239338,45.5348793 L41.0444901,45.5718793 L41.0663311,45.6095172 L41.0888146,45.6458793 L41.1119404,45.6822414 L41.1357086,45.7173276 L41.161404,45.7524138 L41.1870993,45.7868621 L41.2140795,45.8206724 L41.241702,45.8538448 L41.2699669,45.8863793 L41.2988742,45.9182759 L41.3290662,45.9488966 L41.3586159,45.9795172 L41.3907351,46.0088621 L41.4228543,46.0382069 L41.4556159,46.0669138 L41.4890199,46.0943448 L41.5230662,46.1205 L41.5583974,46.1466552 L41.5937285,46.1708966 L41.629702,46.1951379 L41.6785232,46.2263966 L41.7286291,46.2551034 L41.7793775,46.2825345 L41.8307682,46.3080517 L41.8834437,46.3322931 L41.9367616,46.3546207 L41.9900795,46.3763103 L42.0446821,46.3954483 L42.081298,46.4062931 L42.1185563,46.4177759 L42.1558146,46.4279828 L42.1930728,46.4369138 L42.2303311,46.4458448 L42.2682318,46.4535 L42.3061325,46.4605172 L42.3440331,46.4668966 L42.3819338,46.472 L42.4204768,46.4764655 L42.4590199,46.4802931 L42.4969205,46.4834828 L42.5354636,46.4853966 L42.5740066,46.4873103 L42.6510927,46.4873103 L42.6896358,46.4860345 L42.7281788,46.4847586 L42.7667219,46.481569 L42.8052649,46.4777414 L42.8431656,46.4739138 L42.8817086,46.4681724 L42.9196093,46.462431 L42.9575099,46.4560517 L42.9954106,46.4477586 L43.0326689,46.4394655 L43.0705695,46.4311724 L43.1071854,46.4203276 L43.1444437,46.4094828 L43.1810596,46.398 L43.2176755,46.3858793 L43.253649,46.3724828 L43.2896225,46.3584483 L43.325596,46.3437759 L43.3609272,46.3284655 L43.3956159,46.3125172 L43.4303046,46.296569 L43.464351,46.2787069 L43.4983974,46.259569 L43.5318013,46.241069 L43.5645629,46.2212931 L43.5973245,46.2015172 L43.6294437,46.1798276 L43.6923974,46.1351724 L43.7232318,46.1122069 L43.7534238,46.0886034 L43.7829735,46.0643621 L43.8183046,46.0337414 L43.8478543,46.0075862 L43.8735497,45.9833448 L43.8960331,45.9610172 L43.9185166,45.9367759 L43.9422848,45.9112586 L44.0000993,45.8474655 L57.4182185,29.9776552 L57.470894,29.9100345 L57.4920927,29.8826034 L57.5113642,29.8570862 L57.5299934,29.831569 L57.5492649,29.8022241 L57.5698212,29.7690517 L57.5942318,29.7301379 L57.6173576,29.6886724 L57.6398411,29.6472069 L57.681596,29.5617241 L57.7002252,29.5177069 L57.7182119,29.4730517 L57.7349139,29.4290345 L57.7503311,29.3837414 L57.765106,29.3390862 L57.7779536,29.2931552 L57.7895166,29.2472241 L57.8004371,29.2006552 L57.8100728,29.1540862 L57.8184238,29.1081552 L57.8248477,29.0615862 L57.8306291,29.0137414 L57.8351258,28.9678103 L57.8383377,28.9282586 L57.8396225,28.8938103 L57.8402649,28.8619138 L57.8402649,28.8306552 L57.8396225,28.795569 L57.837053,28.7100862 L57.8293444,28.6360862 L57.8280596,28.5978103 L57.8254901,28.5582586 L57.8216358,28.518069 L57.8171391,28.4785172 L57.8113576,28.4383276 L57.8042914,28.3987759 L57.7888742,28.3222241 L57.7811656,28.2890517 L57.773457,28.2571552 L57.7644636,28.2258966 L57.7548278,28.1933621 L57.7451921,28.1621034 L57.7349139,28.1302069 L57.723351,28.0995862 L57.7117881,28.0676897 L57.6995828,28.037069 L57.6867351,28.0064483 L57.6738874,27.9758276 L57.659755,27.9458448 L57.6449801,27.9158621 L57.6302053,27.8871552 L57.6147881,27.8571724 L57.5987285,27.8284655 L57.5820265,27.7997586 L57.5646821,27.7716897 L57.5473377,27.7429828 L57.5287086,27.7149138 L57.5100795,27.6874828 L57.4908079,27.6606897 L57.4715364,27.6345345 L57.4509801,27.6077414 L57.4304238,27.5822241 L57.4092252,27.556069 L57.3873841,27.5305517 L57.365543,27.5056724 L57.3430596,27.481431 L57.3199338,27.4571897 L57.2961656,27.4335862 L57.2723974,27.4106207 L57.2441325,27.3851034 L57.2158675,27.3595862 L57.1869603,27.3347069 L57.1574106,27.3111034 L57.1278609,27.2881379 L57.0970265,27.2645345 L57.0661921,27.2422069 L57.0347152,27.2217931 L57.002596,27.2001034 L56.9704768,27.1809655 L56.9049536,27.1420517 L56.7687682,27.0737931 L50.5382848,24.281569 L55.8520861,11.2696897 L55.8784238,11.1982414 L55.8919139,11.1625172 L55.9034768,11.1261552 L55.9143974,11.0897931 L55.9246755,11.0527931 L55.9343113,11.0157931 L55.9426623,10.979431 L55.9503709,10.9411552 L55.9574371,10.9041552 L55.9638609,10.8665172 L55.969,10.8282414 L55.9734967,10.7906034 L55.977351,10.7523276 L55.9805629,10.7153276 L55.9824901,10.6770517 L55.9837748,10.6387759 L55.9844172,10.6005 L55.9844172,10.5622241 L55.9831325,10.5239483 L55.9805629,10.4761034 L55.9767086,10.4295345 L55.9715695,10.3810517 L55.9651457,10.3338448 L55.9574371,10.2872759 L55.9484437,10.240069 L55.9381656,10.1935 L55.9266026,10.147569 L55.9143974,10.101 L55.9002649,10.0557069 L55.8854901,10.0104138 L55.8687881,9.96575862 L55.8514437,9.92110345 L55.8328146,9.87708621 L55.8129007,9.8337069 L55.791702,9.79160345 L55.7698609,9.74822414 L55.7467351,9.70675862 L55.7223245,9.66593103 L55.6966291,9.62510345 L55.6702914,9.58555172 L55.6426689,9.54663793 L55.6137616,9.50836207 L55.5842119,9.47072414 L55.5533775,9.43436207 L55.5219007,9.39863793 L55.4891391,9.36291379 L55.4557351,9.32974138 L55.4216887,9.29656897 L55.3863576,9.26339655 L55.3503841,9.23213793 L55.3131258,9.20151724 L55.2675166,9.16643103 L55.2212649,9.13262069 L55.1737285,9.10008621 L55.1249073,9.06946552 L55.0754437,9.04075862 L55.0253377,9.01332759 L54.973947,8.98653448 L54.9212715,8.9622931 L54.868596,8.93932759 L54.8152781,8.91827586 L54.7606755,8.89913793 L54.7060728,8.88191379 L54.6508278,8.86596552 L54.5949404,8.85193103 L54.5384106,8.83917241 L54.4818808,8.82896552 L54.4439801,8.82386207 L54.4054371,8.81875862 L54.3296358,8.80982759 L54.176106,8.80344828 L54.0893841,8.80727586 L54.0893841,8.80727586 Z" id="Fill-4" fill="#FFFFFF"></path>
                    <path d="M50.7342119,57.2224138 C50.8517682,57.2224138 50.9468411,57.3174655 50.9468411,57.4342069 L50.9468411,68.1233793 L96.5214238,68.1233793 C96.667245,68.1233793 96.7860861,68.2420345 96.7860861,68.3874828 L96.7860861,73.1368793 C96.7860861,73.2823276 96.667245,73.4003448 96.5214238,73.4003448 L1.12224503,73.4003448 C0.975781457,73.4003448 0.856298013,73.2823276 0.856298013,73.1368793 L0.856298013,68.3874828 C0.856298013,68.2420345 0.975781457,68.1233793 1.12224503,68.1233793 L46.6968278,68.1233793 L46.6968278,57.4342069 C46.6968278,57.3174655 46.7912583,57.2224138 46.909457,57.2224138 L50.7342119,57.2224138" id="Fill-5" fill="#7CBDCF"></path>
                    <path d="M9.90106623,40.0276207 C11.2385099,40.0276207 12.3247815,41.1057241 12.3247815,42.4345345 C12.3247815,43.7627069 11.2385099,44.8408103 9.90106623,44.8408103 C8.56362252,44.8408103 7.47799338,43.7627069 7.47799338,42.4345345 C7.47799338,41.1057241 8.56362252,40.0276207 9.90106623,40.0276207" id="Fill-6" fill="#5DAABF"></path>
                    <path d="M19.9582318,40.0276207 C21.2950331,40.0276207 22.381947,41.1057241 22.381947,42.4345345 C22.381947,43.7627069 21.2950331,44.8408103 19.9582318,44.8408103 C18.6207881,44.8408103 17.5351589,43.7627069 17.5351589,42.4345345 C17.5351589,41.1057241 18.6207881,40.0276207 19.9582318,40.0276207" id="Fill-7" fill="#7CBDCF"></path>
                    <path d="M30.3398013,40.0276207 C31.677245,40.0276207 32.7628742,41.1057241 32.7628742,42.4345345 C32.7628742,43.7627069 31.677245,44.8408103 30.3398013,44.8408103 C29.0023576,44.8408103 27.9167285,43.7627069 27.9167285,42.4345345 C27.9167285,41.1057241 29.0023576,40.0276207 30.3398013,40.0276207" id="Fill-8" fill="#7CBDCF"></path>
                    <path d="M63.6422781,11.0075 C64.9797219,11.0075 66.065351,12.0856034 66.065351,13.4137759 C66.065351,14.7419483 64.9797219,15.8200517 63.6422781,15.8200517 C62.3048344,15.8200517 61.2192053,14.7419483 61.2192053,13.4137759 C61.2192053,12.0856034 62.3048344,11.0075 63.6422781,11.0075" id="Fill-9" fill="#7CBDCF"></path>
                    <path d="M73.6994437,11.0075 C75.036245,11.0075 76.1218742,12.0856034 76.1218742,13.4137759 C76.1218742,14.7419483 75.036245,15.8200517 73.6994437,15.8200517 C72.3613576,15.8200517 71.2757285,14.7419483 71.2757285,13.4137759 C71.2757285,12.0856034 72.3613576,11.0075 73.6994437,11.0075" id="Fill-10" fill="#7CBDCF"></path>
                    <path d="M84.0797285,11.0075 C85.4171722,11.0075 86.5034437,12.0856034 86.5034437,13.4137759 C86.5034437,14.7419483 85.4171722,15.8200517 84.0797285,15.8200517 C82.7422848,15.8200517 81.657298,14.7419483 81.657298,13.4137759 C81.657298,12.0856034 82.7422848,11.0075 84.0797285,11.0075" id="Fill-11" fill="#5DAABF"></path>
                </g>
            </g>
        </g>
    </g>
</svg>